SplineFontDB: 3.2
FontName: TRJNDaVinci-Regular-Accented
FullName: TRJN DaVinci Regular Accented
FamilyName: TRJN DaVinci
Weight: Regular
Copyright: 
Version: 001.000
ItalicAngle: 0
UnderlinePosition: -125
UnderlineWidth: 50
Ascent: 800
Descent: 200
InvalidEm: 0
sfntRevision: 0x00010000
LayerCount: 2
Layer: 0 0 "Back" 1
Layer: 1 0 "Fore" 0
XUID: [1021 911 -1180076844 6578398]
StyleMap: 0x0040
FSType: 8
OS2Version: 4
OS2_WeightWidthSlopeOnly: 0
OS2_UseTypoMetrics: 1
CreationTime: 1744042909
ModificationTime: 1768328656
PfmFamily: 81
TTFWeight: 400
TTFWidth: 5
LineGap: 170
VLineGap: 0
Panose: 0 0 0 0 0 0 0 0 0 0
OS2TypoAscent: 830
OS2TypoAOffset: 0
OS2TypoDescent: -200
OS2TypoDOffset: 0
OS2TypoLinegap: 170
OS2WinAscent: 1000
OS2WinAOffset: 0
OS2WinDescent: 600
OS2WinDOffset: 0
HheadAscent: 1000
HheadAOffset: 0
HheadDescent: -200
HheadDOffset: 0
OS2SubXSize: 650
OS2SubYSize: 600
OS2SubXOff: 0
OS2SubYOff: 75
OS2SupXSize: 650
OS2SupYSize: 600
OS2SupXOff: 0
OS2SupYOff: 350
OS2StrikeYSize: 50
OS2StrikeYPos: 255
OS2CapHeight: 750
OS2XHeight: 515
OS2Vendor: 'UKWN'
OS2CodePages: 00000001.00000000
OS2UnicodeRanges: 00000003.00000000.00000000.00000000
Lookup: 260 0 0 "Mark" { "Mark"  } ['mark' ('DFLT' <'dflt' > 'latn' <'dflt' > ) ]
Lookup: 260 0 0 "mark" { "mark"  } ['abvm' ('DFLT' <'dflt' > 'latn' <'dflt' > ) ]
Lookup: 258 8 0 "'kern' Horizontal Kerning lookup 0" { "'kern' Horizontal Kerning lookup 0 subtable"  } ['kern' ('DFLT' <'dflt' > ) ]
MarkAttachClasses: 1
DEI: 91125

StartChar: .notdef
Encoding: 65536 -1 0
Width: 515
GlyphClass: 1
Flags: HMW
HStem: -200 71<172 343 172 422> -95 48<172 244 238 238 238 244 310 343> -13 24<172 343 172 343> 45 49<206 309 206 309> 128 61<172 343 172 343> 223 25<240 275 240 309> 306 22<172 206 172 343 240 343 240 240> 363 24<172 275 172 309 172 275> 421 38<172 240 172 240> 431 28<309 343 309 309> 493 28<172 343 172 343> 556 37<206 240 206 240 206 275 206 343> 628 27<172 275 172 343> 689 38<173 240 173 240 172 240 173 275 275 343> 761 69<173 343 173 173>
VStem: 96 76<-129 -95 -47 -13 11 128 189 306 328 363 387 421 459 493 521 628 655 689> 96 77<727 761 727 830 727 830> 96 144<248 306 248 421 421 459 556 593 689 727> 96 213<45 94 45 223 223 272 363 431> 206 34<248 306 248 306 248 306 556 593> 206 216<45 94 94 94 223 306 306 306 556 593 593 593> 275 34<248 272 387 431> 275 147<248 272 272 272 387 459 459 459 556 628 628 628 689 727 727 727> 343 79<-129 -95 -95 -95 -47 -13 -13 -13 11 128 128 128 189 306 306 306 328 431 431 431 459 493 493 493 521 556 556 556 655 689 689 689 727 761 761 761>
LayerCount: 2
Fore
SplineSet
343 -13 m 1
 172 -13 l 1
 172 -47 l 1
 244 -47 l 1
 172 -95 l 1
 172 -129 l 1
 343 -129 l 1
 343 -95 l 1
 238 -95 l 1
 310 -47 l 1
 343 -47 l 1
 343 -13 l 1
343 761 m 1
 173 761 l 1
 173 727 l 1
 240 727 l 1
 240 689 l 1
 172 689 l 1
 172 655 l 1
 343 655 l 1
 343 689 l 1
 275 689 l 1
 275 727 l 1
 343 727 l 1
 343 761 l 1
275 628 m 1
 172 628 l 1
 172 521 l 1
 343 521 l 1
 343 556 l 1
 275 556 l 1
 275 628 l 1
240 593 m 1
 240 556 l 1
 206 556 l 1
 206 593 l 1
 240 593 l 1
343 493 m 1
 172 493 l 1
 172 459 l 1
 240 459 l 1
 240 421 l 1
 172 421 l 1
 172 387 l 1
 275 387 l 1
 275 459 l 1
 343 459 l 1
 343 493 l 1
343 431 m 1
 309 431 l 1
 309 363 l 1
 172 363 l 1
 172 328 l 1
 343 328 l 1
 343 431 l 1
343 306 m 1
 240 306 l 1
 240 248 l 1
 275 248 l 1
 275 272 l 1
 309 272 l 1
 309 223 l 1
 206 223 l 1
 206 306 l 1
 172 306 l 1
 172 189 l 1
 343 189 l 1
 343 306 l 1
309 94 m 1
 309 45 l 1
 206 45 l 1
 206 94 l 1
 309 94 l 1
343 128 m 1
 172 128 l 1
 172 11 l 1
 343 11 l 1
 343 128 l 1
422 830 m 1
 422 -200 l 1
 96 -200 l 1
 96 830 l 1
 422 830 l 1
EndSplineSet
Validated: 1
EndChar

StartChar: A
Encoding: 65 65 2
Width: 604
GlyphClass: 1
Flags: HMW
HStem: 0 23 269 30<202.5 346 223 346 346 354 223 360>
VStem: 2 154 257 58 430 173
AnchorPoint: "top" 241 852 basechar 0
LayerCount: 2
Fore
SplineSet
223 299 m 2
 346 299 l 2
 358.575022355 299 365.590745159 303.941599601 365.590745159 313.824798803 c 0
 365.590745159 316.516621956 365.070305514 319.575022355 364 323 c 0
 361 337 316 507 292 583 c 0
 289.937802231 590.21769219 286.546648326 594.51168088 282.922766437 594.51168088 c 0
 279.517483723 594.51168088 275.906703347 590.720110041 273 582 c 0
 254 517 228 409 204 323 c 0
 203.308422981 320.233691922 202.975555041 317.706523231 202.975555041 315.418493927 c 0
 202.975555041 304.472831309 210.593413823 299 223 299 c 2
24 0 m 0
 21.7763888346 -0.238244053432 19.710444972 -0.350354264652 17.805173476 -0.350354264652 c 0
 7.07393845309 -0.350354264652 1.4398469577 3.20621149554 1.4398469577 7.8135858324 c 0
 1.4398469577 12.6887341977 7.74785984307 18.740383521 21 23 c 0
 76 40 114 132 131 186 c 0
 155 261 213 481 254 633 c 0
 256.219544457 640.028557448 257.481182159 647.057114896 257.481182159 654.743756063 c 0
 257.481182159 667.836084584 253.821062933 682.837570439 245 703 c 0
 243.606555176 706.096544054 242.956225695 709.073230795 242.956225695 712.041403257 c 0
 242.956225695 728.244102648 262.335161676 744.193088108 286 778 c 0
 289.26942767 782.203549861 294.938462077 784.661931185 300.459914695 784.661931185 c 0
 306.760154505 784.661931185 312.868244383 781.461144661 315 774 c 2
 432 348 l 2
 446 296 486 166 505 109 c 0
 520 64 544 29 582 23 c 0
 596.22756697 20.6287388383 602.808017824 14.8837499785 602.808017824 9.71169488787 c 0
 602.808017824 4.49430992694 596.111714317 -0.140054433659 583.814065076 -0.140054433659 c 0
 582.597200848 -0.140054433659 581.325492203 -0.0946780145234 580 0 c 0
 556 2 542 7 502 7 c 0
 462 7 408 0 347 0 c 0
 332.868564676 0 325.860701206 4.74904790311 325.860701206 10.0816418496 c 0
 325.860701206 15.6923966076 333.618726198 21.949163493 349 24 c 0
 408.243165262 28.6770919944 429.812393011 44.2917787506 429.812393011 77.4754113481 c 0
 429.812393011 86.8613488649 428.086785346 97.6528586141 425 110 c 0
 417 141 401 199 385 253 c 0
 381 265 373 269 360 269 c 2
 209 269 l 2
 196 269 190 265 185 251 c 0
 178 231 171 208 167 189 c 0
 161.140681001 165.196516567 155.951901438 137.503904403 155.951901438 111.569963668 c 0
 155.951901438 66.6862800638 171.49383962 27.0703405005 226 22 c 0
 241.634909982 20.9576726679 249.664696093 15.0263371329 249.664696093 9.58504843174 c 0
 249.664696093 4.58568469396 242.886253684 -1.7763568394e-15 229 0 c 0
 158 0 126 7 101 7 c 0
 81 7 43 2 24 0 c 0
EndSplineSet
Validated: 524289
EndChar

StartChar: B
Encoding: 66 66 3
Width: 580
GlyphClass: 1
Flags: HMW
HStem: -1 29<289.5 361.5 283 377.5> 382 30 720 30
VStem: 136 70<344 357 344 421> 136 71.5 421 76<526 619.5> 456 80<147 251.5>
LayerCount: 2
Fore
SplineSet
257 412 m 0
 341 413 421 460 421 575 c 0
 421 664 359 719 281 720 c 0
 280.239953084 720.016171211 279.485920854 720.024235672 278.737903309 720.024235672 c 0
 233.229796559 720.024235672 209.983828789 690.17526824 209 640 c 2
 206 460 l 2
 205 425 217 412 257 412 c 0
317 28 m 0
 406 28 456 99 456 195 c 0
 456 308 402 379 248 382 c 0
 247.034481182 382.035759956 246.084307657 382.05361707 245.149616613 382.05361707 c 0
 219.94638293 382.05361707 206 369.070241138 206 344 c 0
 207 270 207 155 209 118 c 0
 212 55 249 28 317 28 c 0
52 0 m 0
 37.2585343873 0 29.4937534679 5.16791458766 29.4937534679 10.7751664068 c 0
 29.4937534679 16.1987243474 36.7581184136 22.0333056018 52 24 c 0
 109 30 130 54 133 110 c 0
 135 151 136 236 136 366 c 0
 136 476 135 611 133 639 c 0
 130 696 109 719 52 725 c 0
 36.7581184136 726.966694398 29.4937534679 732.801275653 29.4937534679 738.224833593 c 0
 29.4937534679 743.832085412 37.2585343873 749 52 749 c 0
 93 749 129 742 169 742 c 0
 210 742 246 750 290 750 c 0
 422 749 497 691 497 577 c 0
 497 475 412 425 355 407 c 0
 340 402 340 395 353 393 c 0
 440 381 536 330 536 197 c 0
 536 63 441 -1 314 -1 c 0
 265 -1 219 7 169 7 c 0
 129 7 93 0 52 0 c 0
EndSplineSet
Validated: 33
EndChar

StartChar: C
Encoding: 67 67 4
Width: 596
GlyphClass: 1
Flags: HMW
HStem: -15 35<288.5 390.5> 730 35<273.5 367>
VStem: 47 85<270.5 490>
AnchorPoint: "bottom" 351 -14 basechar 0
LayerCount: 2
Fore
SplineSet
351 -15 m 0
 173 -15 47 129 47 375 c 0
 47 605 172 765 350 765 c 0
 406 765 457 746 495 724 c 0
 510 715 522 703 526 692 c 0
 526.413876618 690.841145469 551.063091106 610.227058638 551.063091106 571.525030625 c 0
 551.063091106 561.614139442 547.899084625 554.962860736 542.701627072 554.962860736 c 0
 538.34247814 554.962860736 532.55293666 559.641576456 526 571 c 0
 460 684 404 730 330 730 c 0
 217 730 132 595 132 393 c 0
 132 148 217 20 360 20 c 0
 429 20 496 72 534 183 c 0
 539.070721735 197.2902158 544.778936502 202.868026842 549.263479281 202.868026842 c 0
 553.874892758 202.868026842 557.192417879 196.970151565 557.192417879 188.582631352 c 0
 557.192417879 187.221741261 551.247221145 125.236105723 537 54 c 0
 534 39 528.27299372 24.4289753937 512 17 c 0
 466 -4 430 -15 351 -15 c 0
EndSplineSet
Validated: 1
EndChar

StartChar: D
Encoding: 68 68 5
Width: 702
GlyphClass: 1
Flags: HMW
HStem: -1 29<305 415.5> 719 31<302.5 378.5>
VStem: 136 69<304 409.5 304 421.5> 570 85<273 493.5>
LayerCount: 2
Fore
SplineSet
341 28 m 0
 501 28 570 171 570 375 c 0
 570 612 461 719 296 719 c 0
 235 719 209 706 209 641 c 0
 209 584 205 453 205 366 c 0
 205 242 207 183 209 133 c 0
 212 56 258 28 341 28 c 0
52 0 m 0
 37.2585343873 0 29.4937534679 5.16791458766 29.4937534679 10.7751664068 c 0
 29.4937534679 16.1987243474 36.7581184136 22.0333056018 52 24 c 0
 109 30 130 54 133 110 c 0
 135 151 136 236 136 366 c 0
 136 477 135 612 133 640 c 0
 130 697 109 720 52 726 c 0
 36.7581184136 727.966694398 29.4937534679 733.801275653 29.4937534679 739.224833593 c 0
 29.4937534679 744.832085412 37.2585343873 750 52 750 c 0
 93 750 129 743 169 743 c 0
 230 743 276 750 329 750 c 0
 523 750 655 616 655 386 c 0
 655 112 515 -1 316 -1 c 0
 294 -1 215 7 169 7 c 0
 129 7 93 0 52 0 c 0
EndSplineSet
Validated: 1
EndChar

StartChar: E
Encoding: 69 69 6
Width: 576
GlyphClass: 1
Flags: HMW
HStem: 0 26 366 28<232.5 249 232.5 259.5> 498 20G 722 28
VStem: 136 68<301 337.5 281.5 421> 136 70.5 396 22<262 262 494 494>
AnchorPoint: "top" 279 852 basechar 0
LayerCount: 2
Fore
SplineSet
52 0 m 0
 37.2585343873 0 29.4937534679 5.16791458766 29.4937534679 10.7751664068 c 0
 29.4937534679 16.1987243474 36.7581184136 22.0333056018 52 24 c 0
 109 30 130 54 133 110 c 0
 135 151 136 236 136 366 c 0
 136 476 135 613 133 641 c 0
 130 698 109 719 52 725 c 0
 36.7581184136 726.966694398 29.4937534679 732.801275653 29.4937534679 738.224833593 c 0
 29.4937534679 743.832085412 37.2585343873 749 52 749 c 0
 93 749 129 742 168 742 c 0
 250 742 313 750 361 750 c 0
 406 750 441 745 466 736 c 0
 481 731 487 718 489 701 c 0
 499.127149483 618.536068497 503.047634448 575.829011592 503.047634448 556.387401004 c 0
 503.047634448 542.916677809 499.080743433 535.981950406 494.336814307 535.981950406 c 0
 490.08262038 535.981950406 485.203540873 541.558782595 482 553 c 0
 460.2330077 630.173881792 415.950633297 722.031708433 305.567606637 722.031708433 c 0
 304.385996667 722.031708433 303.196812276 722.021182518 302 722 c 0
 233 721 209 687 208 642 c 2
 205 440 l 2
 204 406 216 394 249 394 c 0
 287 395 297 395 315 397 c 0
 368 403 390 433 396 494 c 0
 397.465439742 510.608317077 402.748681507 518.387966977 407.77021366 518.387966977 c 0
 413.028596831 518.387966977 418 509.857122665 418 494 c 0
 418 450 411 397 411 379 c 0
 411 343.938694167 418.134017141 265.968005272 418.134017141 258.348930922 c 0
 418.134017141 246.329743289 413.515603347 239.860717586 408.464710726 239.860717586 c 0
 403.198401981 239.860717586 397.46193807 246.89330661 396 262 c 0
 389 336 358 361 316 363 c 0
 282 365 271 366 248 366 c 0
 216 366 204 354 204 321 c 0
 204 242 205 167 208 109 c 0
 210 64 230 27 299 26 c 0
 300.575513615 25.9723594103 302.144533212 25.9586618607 303.707035033 25.9586618607 c 0
 415.203034156 25.9586618607 493.51135091 95.7048350384 530 146 c 0
 541.752212741 161.3682782 550.848377323 168.359789127 556.27263909 168.359789127 c 0
 559.936719407 168.359789127 561.925317331 165.169575756 561.925317331 159.216124739 c 0
 561.925317331 154.484632579 560.669270992 148.007812977 558 140 c 0
 523 33 505 0 413 0 c 0
 262 0 218 7 168 7 c 0
 125 7 93 0 52 0 c 0
EndSplineSet
Validated: 8912929
EndChar

StartChar: F
Encoding: 70 70 7
Width: 529
GlyphClass: 1
Flags: HMW
HStem: 0 24<52 52 332 332> 356 28<250 250> 509 20G 722 28<323.5 358.5>
VStem: 136 68<306 322.5 416 421>
LayerCount: 2
Fore
SplineSet
52 0 m 0
 37.2585343873 0 29.4937534679 5.16791458766 29.4937534679 10.7751664068 c 0
 29.4937534679 16.1987243474 36.7581184136 22.0333056018 52 24 c 0
 109 30 130 54 133 110 c 0
 135 151 136 236 136 366 c 0
 136 476 134 611 133 639 c 0
 131 696 109 720 52 726 c 0
 36.8933066097 727.94925076 29.8607175861 733.698080046 29.8607175861 739.080426484 c 0
 29.8607175861 744.743034443 37.6447553202 750 52 750 c 0
 90 750 128 742 165 742 c 0
 169.052631579 741.947368421 173.024930748 741.922437673 176.923895612 741.922437673 c 0
 247.105263158 741.922437673 293.526315789 750 357 750 c 0
 403 750 433 747 469 735 c 0
 481 731 487 717 489 698 c 0
 489.138462725 696.580757071 503.042287138 586.67778253 503.042287138 556.094967131 c 0
 503.042287138 539.335055943 498.652474338 530.76177381 493.481610803 530.76177381 c 0
 488.706481916 530.76177381 483.26527779 538.073015817 480 553 c 0
 463 631 409 722 308 722 c 0
 231 722 209 685 208 640 c 2
 204 432 l 2
 204 400 220 384 251 384 c 0
 348 384 369 417 376 505 c 0
 377.476579641 521.242376051 382.829225836 529.005856517 387.884683717 529.005856517 c 0
 393.100513088 529.005856517 398 520.742010376 398 505 c 0
 398 461 391 408 391 368 c 0
 391 322.392224609 398.134110299 238.530903858 398.134110299 237.221171153 c 0
 398.134110299 224.934692892 393.612581045 218.493753468 388.737326657 218.493753468 c 0
 383.55981004 218.493753468 377.983347199 225.758118414 377 241 c 0
 372 328 342 352 250 356 c 0
 249.208327208 356.026389093 248.426403795 356.039546886 247.654266515 356.039546886 c 0
 219.166691169 356.039546886 204 338.129159928 204 306 c 0
 205 213 206 149 208 107 c 0
 210 62 237 34 332 24 c 0
 346.241318655 22.0356801855 353.006692164 15.7304889955 353.006692164 10.0584278955 c 0
 353.006692164 4.68052319077 346.924835476 -0.128217598987 335.366775938 -0.128217598987 c 0
 334.291731305 -0.128217598987 333.169310206 -0.0866155708182 332 0 c 0
 294 3 218 7 178 7 c 0
 129 7 93 0 52 0 c 0
EndSplineSet
Validated: 1
EndChar

StartChar: G
Encoding: 71 71 8
Width: 644
GlyphClass: 1
Flags: HMW
HStem: -15 35<285.5 392> 327 27<372 372> 730 35<278.5 375.5>
VStem: 47 86<263 495.5 263 500.5> 495 64
LayerCount: 2
Fore
SplineSet
356 -15 m 0
 170 -15 47 120 47 377 c 0
 47 624 185 765 352 765 c 0
 426 765 485 735 515 715 c 0
 527 707 532 698 535 688 c 0
 545 657 555 615 559 575 c 0
 559.226958893 572.73041107 559.333726995 570.672586868 559.333726995 568.813537694 c 0
 559.333726995 558.104455262 555.790782984 553.991432731 551.270700243 553.991432731 c 0
 546.203531846 553.991432731 539.908375421 559.160343014 536 566 c 0
 474 676 417 730 334 730 c 0
 223 730 133 614 133 377 c 0
 133 149 215 20 356 20 c 0
 435 20 495 55 495 124 c 0
 495 187 494 222 493 240 c 0
 490 296 459 321 372 327 c 0
 356.758118414 328.475020799 349.493753468 335.026643096 349.493753468 341.30622918 c 0
 349.493753468 347.798502495 357.258534387 354 372 354 c 0
 432 354 478 347 532 347 c 0
 572 347 588 351 606 353 c 0
 607.465085418 353.162787269 608.856560572 353.240186632 610.173466838 353.240186632 c 0
 621.207649268 353.240186632 627.006692164 347.806332464 627.006692164 341.637818803 c 0
 627.006692164 334.975149474 620.241318655 327.455399768 606 325 c 0
 567 319 559 286 559 241 c 2
 558 95 l 2
 558 74 569 60 569 42 c 0
 569 27 549 21 520 10 c 0
 477 -5 428 -15 356 -15 c 0
EndSplineSet
Validated: 1
EndChar

StartChar: H
Encoding: 72 72 9
Width: 729
GlyphClass: 1
Flags: HMW
HStem: 0 24<52 52 293 293 436 436 687 687> 385 30<230.5 478 247 478> 729 20G<37.5 72.5 421.5 456.5>
VStem: 136 69<312 347 287 432> 136 70 520 69<315 346 315 472>
LayerCount: 2
Fore
SplineSet
52 0 m 0
 37.2585343873 0 29.4937534679 5.16791458766 29.4937534679 10.7751664068 c 0
 29.4937534679 16.1987243474 36.7581184136 22.0333056018 52 24 c 0
 109 30 130 54 133 110 c 0
 135 151 136 247 136 377 c 0
 136 487 135 611 133 639 c 0
 130 696 109 719 52 725 c 0
 36.7581184136 726.966694398 29.4937534679 732.801275653 29.4937534679 738.224833593 c 0
 29.4937534679 743.832085412 37.2585343873 749 52 749 c 0
 93 749 129 742 169 742 c 0
 219 742 255 746 293 749 c 0
 294.169310206 749.086615571 295.291731305 749.128217599 296.366775938 749.128217599 c 0
 307.924835476 749.128217599 314.006692164 744.319476809 314.006692164 738.941572104 c 0
 314.006692164 733.269511005 307.241318655 726.964319815 293 725 c 0
 224 718 210 685 209 640 c 0
 207 582 207 531 206 471 c 0
 205.947088533 469.042275726 205.919373676 467.134944672 205.919373676 465.27815497 c 0
 205.919373676 432.042557103 214.798989873 415 247 415 c 2
 478 415 l 2
 511 415 520 435 520 472 c 2
 517 639 l 2
 515 696 493 719 436 725 c 0
 420.758118414 726.966694398 413.493753468 732.801275653 413.493753468 738.224833593 c 0
 413.493753468 743.832085412 421.258534387 749 436 749 c 0
 477 749 513 742 563 742 c 0
 603 742 639 746 677 749 c 0
 678.169310206 749.086615571 679.291731305 749.128217599 680.366775938 749.128217599 c 0
 691.924835476 749.128217599 698.006692164 744.319476809 698.006692164 738.941572104 c 0
 698.006692164 733.269511005 691.241318655 726.964319815 677 725 c 0
 608 718 594 685 593 640 c 0
 591 551 589 463 589 377 c 0
 589 253 591 159 593 109 c 0
 595 64 618 31 687 24 c 0
 701.241318655 22.0356801855 708.006692164 15.7304889955 708.006692164 10.0584278955 c 0
 708.006692164 4.68052319077 701.924835476 -0.128217598987 690.366775938 -0.128217598987 c 0
 689.291731305 -0.128217598987 688.169310206 -0.0866155708182 687 0 c 0
 649 3 603 7 563 7 c 0
 513 7 477 0 436 0 c 0
 421.258534387 0 413.493753468 5.16791458766 413.493753468 10.7751664068 c 0
 413.493753468 16.1987243474 420.758118414 22.0333056018 436 24 c 0
 493 30 514 54 517 110 c 0
 519 147 520 227 520 327 c 0
 520 365 511 385 478 385 c 2
 247 385 l 2
 214 385 205 366 205 328 c 0
 205 246 207 163 209 109 c 0
 211 64 224 31 293 24 c 0
 307.241318655 22.0356801855 314.006692164 15.7304889955 314.006692164 10.0584278955 c 0
 314.006692164 4.68052319077 307.924835476 -0.128217598987 296.366775938 -0.128217598987 c 0
 295.291731305 -0.128217598987 294.169310206 -0.0866155708182 293 0 c 0
 255 3 219 7 169 7 c 0
 129 7 93 0 52 0 c 0
EndSplineSet
Validated: 1
EndChar

StartChar: I
Encoding: 73 73 10
Width: 342
GlyphClass: 1
Flags: HMW
HStem: 0 21G<37.5 72.5> 730 20G<37.5 72.5>
VStem: 136 69<304 414.5 304 421>
AnchorPoint: "top" 164 855 basechar 0
LayerCount: 2
Fore
SplineSet
52 0 m 0
 37.2585343873 0 29.4937534679 5.16791458766 29.4937534679 10.7751664068 c 0
 29.4937534679 16.1987243474 36.7581184136 22.0333056018 52 24 c 0
 109 30 130 54 133 110 c 0
 135 151 136 236 136 366 c 0
 136 476 135 612 133 640 c 0
 130 697 109 720 52 726 c 0
 36.7581184136 727.966694398 29.4937534679 733.801275653 29.4937534679 739.224833593 c 0
 29.4937534679 744.832085412 37.2585343873 750 52 750 c 0
 93 750 129 743 169 743 c 0
 219 743 255 747 293 750 c 0
 294.169310206 750.086615571 295.291731305 750.128217599 296.366775938 750.128217599 c 0
 307.924835476 750.128217599 314.006692164 745.319476809 314.006692164 739.941572104 c 0
 314.006692164 734.269511005 307.241318655 727.964319815 293 726 c 0
 224 719 210 686 209 641 c 0
 207 552 205 463 205 366 c 0
 205 242 207 159 209 109 c 0
 211 64 224 31 293 24 c 0
 307.241318655 22.0356801855 314.006692164 15.7304889955 314.006692164 10.0584278955 c 0
 314.006692164 4.68052319077 307.924835476 -0.128217598987 296.366775938 -0.128217598987 c 0
 295.291731305 -0.128217598987 294.169310206 -0.0866155708182 293 0 c 0
 255 3 219 7 174 7 c 0
 129 7 93 0 52 0 c 0
EndSplineSet
Validated: 524289
EndChar

StartChar: J
Encoding: 74 74 11
Width: 335
GlyphClass: 1
Flags: HMW
HStem: -192 90 730 20G<33.5 68.5>
VStem: 131 70
LayerCount: 2
Fore
SplineSet
201 210 m 2
 201 156 193 50 135 -50 c 0
 73 -157 18 -192 -19 -192 c 0
 -57 -192 -95 -154 -95 -121 c 0
 -95 -103.01549741 -69.3202684245 -102.15081587 -38.5187758309 -102.15081587 c 0
 -35.2418452297 -102.15081587 -31.9069436977 -102.160602815 -28.5388264488 -102.160602815 c 0
 -23.0780294337 -102.160602815 -17.5299189395 -102.134876072 -12 -102 c 0
 69 -100 132 -46 132 72 c 2
 131 360 l 2
 131 490 131 612 129 640 c 0
 126 697 105 720 48 726 c 0
 32.7581184136 727.966694398 25.4937534679 733.801275653 25.4937534679 739.224833593 c 0
 25.4937534679 744.832085412 33.2585343873 750 48 750 c 0
 89 750 125 743 165 743 c 0
 215 743 251 747 289 750 c 0
 290.169310206 750.086615571 291.291731305 750.128217599 292.366775938 750.128217599 c 0
 303.924835476 750.128217599 310.006692164 745.319476809 310.006692164 739.941572104 c 0
 310.006692164 734.269511005 303.241318655 727.964319815 289 726 c 0
 220 719 206 686 205 641 c 0
 203 552 201 468 201 270 c 2
 201 210 l 2
EndSplineSet
Validated: 1
EndChar

StartChar: K
Encoding: 75 75 12
Width: 609
GlyphClass: 1
Flags: HMW
HStem: -16 21G<541.5 607> 1 24<52 52 303 303> 355 44 727 23<52 52 303 303> 728 22
VStem: 136 69<302.5 342.5 276 422> 136 70<410 422> 136 159 412 175
LayerCount: 2
Fore
SplineSet
596 -16 m 0
 487 -16 442 37 244 338 c 0
 236.268418203 349.597372696 227.983342358 355.475306905 221.046721133 355.475306905 c 0
 211.834100803 355.475306905 205 345.107304083 205 324 c 0
 205 228 207 155 209 110 c 0
 211 65 234 32 303 25 c 0
 317.241318655 23.5267601391 324.006692164 17.230329861 324.006692164 11.4399964502 c 0
 324.006692164 5.92927497012 317.87893482 0.876952245278 306.235943327 0.876952245278 c 0
 305.200751074 0.876952245278 304.121959793 0.91689186722 303 1 c 0
 265 4 219 9 179 9 c 0
 129 9 93 1 52 1 c 0
 37.2585343873 1 29.4937534679 6.42631031705 29.4937534679 12.1563054819 c 0
 29.4937534679 17.6985856895 36.7581184136 23.5249792013 52 25 c 0
 109 31 130 55 133 111 c 0
 135 152 136 238 136 367 c 0
 136 477 134 612 133 640 c 0
 131 697 109 720 52 727 c 0
 36.7581184136 728.475020799 29.4937534679 734.059671382 29.4937534679 739.356182964 c 0
 29.4937534679 744.832085412 37.2585343873 750 52 750 c 0
 93 750 129 743 179 743 c 0
 219 743 265 747 303 750 c 0
 304.170454005 750.086700297 305.293927127 750.128298945 306.369930573 750.128298945 c 0
 317.92594212 750.128298945 324.006692164 745.330215181 324.006692164 740.0733822 c 0
 324.006692164 734.528510618 317.241318655 728.473239861 303 727 c 0
 234 719 210 686 209 641 c 2
 206 427 l 2
 206 407.850738847 212.978609394 399.169391785 221.933440501 399.169391785 c 0
 228.878139679 399.169391785 237.011417013 404.390698393 244 414 c 0
 290 475 309 503 341 554 c 0
 388.087100357 629.460096725 411.850650207 675.036894365 411.850650207 700.630378164 c 0
 411.850650207 717.432618911 401.608599762 725.622084643 381 728 c 0
 365.251865683 729.574813432 356.9438434 735.558582143 356.9438434 740.888496346 c 0
 356.9438434 745.712002407 363.748134317 750 378 750 c 0
 418 750 443 743 475 743 c 0
 515 743 529 750 564 750 c 0
 578.958725459 750 587.352961442 744.577160867 587.352961442 739.068243247 c 0
 587.352961442 734.265473966 580.972794151 729.397279415 567 728 c 0
 502 720 439 651 385 570 c 0
 362 536 340 500 308 450 c 0
 299.245382862 436.637689631 295.161549843 424.124612739 295.161549843 411.971643406 c 0
 295.161549843 397.749225478 300.754617138 384.019997601 311 370 c 0
 389 265 492 113 605 5 c 0
 612.795751189 -2.38544849467 616.382794857 -7.24567247697 616.382794857 -10.4095570835 c 0
 616.382794857 -14.9567712624 608.973340729 -16 596 -16 c 0
EndSplineSet
Validated: 1
EndChar

StartChar: L
Encoding: 76 76 13
Width: 573
GlyphClass: 1
Flags: HMW
HStem: 0 26<344.5 358.5 273 465> 729 20G<37.5 72.5>
VStem: 136 69<304 409.5 304 421>
LayerCount: 2
Fore
SplineSet
52 0 m 0
 37.2585343873 0 29.4937534679 5.16791458766 29.4937534679 10.7751664068 c 0
 29.4937534679 16.1987243474 36.7581184136 22.0333056018 52 24 c 0
 109 30 130 54 133 110 c 0
 135 151 136 236 136 366 c 0
 136 476 135 611 133 639 c 0
 130 696 109 719 52 725 c 0
 36.7581184136 726.966694398 29.4937534679 732.801275653 29.4937534679 738.224833593 c 0
 29.4937534679 743.832085412 37.2585343873 749 52 749 c 0
 93 749 129 742 169 742 c 0
 219 742 255 746 293 749 c 0
 294.169310206 749.086615571 295.291731305 749.128217599 296.366775938 749.128217599 c 0
 307.924835476 749.128217599 314.006692164 744.319476809 314.006692164 738.941572104 c 0
 314.006692164 733.269511005 307.241318655 726.964319815 293 725 c 0
 224 718 210 685 209 640 c 0
 207 551 205 453 205 366 c 0
 205 242 207 151 209 101 c 0
 211 56 234 26 312 26 c 0
 405 26 481 82 528 146 c 0
 539.372875703 161.012195928 548.469326895 167.953432227 553.971343023 167.953432227 c 0
 557.715247768 167.953432227 559.794833766 164.739455761 559.794833766 158.667446189 c 0
 559.794833766 154.047345206 558.590865817 147.772597452 556 140 c 0
 521 34 506 0 424 0 c 0
 265 0 219 7 169 7 c 0
 127 7 93 0 52 0 c 0
EndSplineSet
Validated: 1
EndChar

StartChar: M
Encoding: 77 77 14
Width: 823
GlyphClass: 1
Flags: HMW
HStem: -15 21G 0 24<53 53 264 264 515 515 776 776> 727 23<53 53 776 776>
VStem: 135 35 383 25<-2 -2> 613 69<305 410.5>
LayerCount: 2
Fore
SplineSet
191 607 m 2
 185.460134458 625.130469046 180.173906191 633.876358934 176.290955887 633.876358934 c 0
 172.463889942 633.876358934 170 625.380403374 170 609 c 0
 170 465 167.44 377.96 167.44 298.216 c 0
 167.44 278.28 167.6 258.8 168 239 c 0
 171 95 195 31 264 24 c 0
 278.241318655 22.0356801855 285.006692164 15.7304889955 285.006692164 10.0584278955 c 0
 285.006692164 4.68052319077 278.924835476 -0.128217598987 267.366775938 -0.128217598987 c 0
 266.291731305 -0.128217598987 265.169310206 -0.0866155708182 264 0 c 0
 226 3 189 8 155 8 c 0
 126 8 94 0 53 0 c 0
 38.2585343873 0 30.4937534679 5.16791458766 30.4937534679 10.7751664068 c 0
 30.4937534679 16.1987243474 37.7581184136 22.0333056018 53 24 c 0
 110 30 132 84 135 240 c 0
 135.898979486 287.645912735 136.393876913 357.314297617 136.393876913 426.755388971 c 0
 136.393876913 511.803009471 135.651530772 596.50968968 134 640 c 0
 132 697 110 720 53 727 c 0
 37.7581184136 728.475020799 30.4937534679 734.059671382 30.4937534679 739.356182964 c 0
 30.4937534679 744.832085412 38.2585343873 750 53 750 c 2
 213 750 l 2
 222 750 230 745 233 737 c 2
 409 182 l 2
 411.5 173.5 415.25 169.25 419 169.25 c 0
 422.75 169.25 426.5 173.5 429 182 c 2
 596 737 l 2
 598 745 605 750 613 750 c 2
 776 750 l 2
 790.741465613 750 798.506246532 744.832085412 798.506246532 739.356182964 c 0
 798.506246532 734.059671382 791.241881586 728.475020799 776 727 c 0
 709 720 687 697 685 640 c 0
 684 612 682 477 682 367 c 0
 682 238 683 150 685 109 c 0
 688 53 709 30 776 24 c 0
 791.241881586 22.0333056018 798.506246532 16.1987243474 798.506246532 10.7751664068 c 0
 798.506246532 5.16791458766 790.741465613 8.881784197e-16 776 0 c 0
 725 0 689 8 634 8 c 0
 599 8 553 3 515 0 c 0
 513.830689794 -0.0866155708182 512.708268695 -0.128217598987 511.633224062 -0.128217598987 c 0
 500.075164524 -0.128217598987 493.993307836 4.68052319077 493.993307836 10.0584278955 c 0
 493.993307836 15.7304889955 500.758681345 22.0356801855 515 24 c 0
 584 31 607 63 609 108 c 0
 611 158 613 243 613 367 c 0
 613 454 611 536 609 593 c 0
 608.522096276 612.116148966 606.217056795 621.183051272 602.630628422 621.183051272 c 0
 598.712557056 621.183051272 593.26515531 610.361754758 587 590 c 2
 408 -2 l 2
 405.5 -10.5 400.5 -14.75 395.5 -14.75 c 0
 390.5 -14.75 385.5 -10.5 383 -2 c 2
 191 607 l 2
EndSplineSet
Validated: 1
EndChar

StartChar: N
Encoding: 78 78 15
Width: 675
GlyphClass: 1
Flags: HMW
HStem: -13 21G 0 21G<38.5 73.5> 623 127
VStem: 137 33<246 246> 518 29
LayerCount: 2
Fore
SplineSet
53 0 m 0
 38.2585343873 0 30.4937534679 5.16791458766 30.4937534679 10.6438170358 c 0
 30.4937534679 15.940328618 37.7581184136 21.5249792013 53 23 c 0
 110 30 133 70 137 246 c 0
 137.878679656 282.025865914 138.242640687 323.970996024 138.242640687 367.262409947 c 0
 138.242640687 471.777128573 136.121320344 584.138564286 134 640 c 0
 132 696 110 720 53 726 c 0
 37.7581184136 727.966694398 30.4937534679 733.801275653 30.4937534679 739.224833593 c 0
 30.4937534679 744.832085412 38.2585343873 750 53 750 c 2
 179 750 l 2
 197 750 210 742 219 724 c 0
 327 520 407 379 497 220 c 0
 503.706816762 208.650002403 508.816661059 202.357084276 512.329532893 202.357084276 c 0
 515.625753279 202.357084276 517.515908982 207.897724542 518 220 c 0
 520.5 316 521.25 375.75 521.25 419.875 c 0
 521.25 464 520.5 492.5 520 526 c 0
 518 647 499 711 420 727 c 0
 404.758118414 729.950041597 397.493753468 735.559255408 397.493753468 740.49960019 c 0
 397.493753468 745.6072726 405.258534387 750 420 750 c 0
 471 750 495 742 540 742 c 0
 563 742 599 747 627 750 c 0
 628.169310206 750.086615571 629.291731305 750.128217599 630.366775938 750.128217599 c 0
 641.924835476 750.128217599 648.006692164 745.319476809 648.006692164 739.941572104 c 0
 648.006692164 734.269511005 641.241318655 727.964319815 627 726 c 0
 568 719 554 637 553 527 c 0
 552 471 551 454 551 367 c 0
 551 275 547 154 547 8 c 0
 547 -5.63355194029 543.45032791 -13.4585495522 538.367427015 -13.4585495522 c 0
 534.502577388 -13.4585495522 529.751288694 -8.93451272389 525 1 c 0
 440 174 218 567 192 607 c 0
 185.411542732 616.882685902 179.425971147 623.148057707 175.367314098 623.148057707 c 0
 172.033666301 623.148057707 170 618.921161675 170 609 c 0
 170 489 169.555555556 420.111111111 169.555555556 352.259259259 c 0
 169.555555556 318.333333333 169.666666667 284.666666667 170 245 c 0
 171 83 195 33 274 23 c 0
 288.241318655 21.0356801855 295.006692164 14.9716485164 295.006692164 9.54504924547 c 0
 295.006692164 4.4214436536 288.975715387 -0.133924281359 277.511831375 -0.133924281359 c 0
 276.392802312 -0.133924281359 275.222006432 -0.0905189949791 274 0 c 0
 226 3 180 7 155 7 c 0
 130 7 94 0 53 0 c 0
EndSplineSet
Validated: 1
EndChar

StartChar: O
Encoding: 79 79 16
Width: 664
GlyphClass: 1
Flags: HMW
HStem: -15 35<280.5 403.5 280.5 416> 730 35<259.5 382.5>
VStem: 47 85<265 493.5 265 495.5> 532 85<262.5 490>
AnchorPoint: "top" 321 855 basechar 0
LayerCount: 2
Fore
SplineSet
342 20 m 0
 465 20 532 150 532 375 c 0
 532 605 444 730 321 730 c 0
 198 730 132 607 132 380 c 0
 132 150 219 20 342 20 c 0
332 -15 m 0
 164 -15 47 141 47 376 c 0
 47 615 164 765 332 765 c 0
 500 765 617 615 617 378 c 0
 617 141 500 -15 332 -15 c 0
EndSplineSet
Validated: 1
EndChar

StartChar: P
Encoding: 80 80 17
Width: 525
GlyphClass: 1
Flags: HMW
HStem: 0 24<52 52 303 303> 344 29<234.5 293 234.5 316> 721 29<264 316>
VStem: 136 69<301 312 408.5 421> 419 77<481 608>
LayerCount: 2
Fore
SplineSet
250 373 m 0
 336 373 419 413 419 549 c 0
 419 667 357 721 275 721 c 0
 226 721 211 700 209 641 c 2
 205 428 l 2
 205 389 219 373 250 373 c 0
52 0 m 0
 37.2585343873 0 29.4937534679 5.16791458766 29.4937534679 10.7751664068 c 0
 29.4937534679 16.1987243474 36.7581184136 22.0333056018 52 24 c 0
 109 30 130 54 133 110 c 0
 135 151 136 236 136 366 c 0
 136 476 135 611 133 639 c 0
 130 696 109 720 52 726 c 0
 36.7581184136 727.966694398 29.4937534679 733.801275653 29.4937534679 739.224833593 c 0
 29.4937534679 744.832085412 37.2585343873 750 52 750 c 0
 93 750 119 743 167 743 c 0
 197 743 228 750 300 750 c 0
 424 750 496 681 496 555 c 0
 496 402 383 344 249 344 c 0
 219 344 205 333 205 291 c 0
 206 220 207 150 209 109 c 0
 211 64 234 31 303 24 c 0
 317.241318655 22.0356801855 324.006692164 15.7304889955 324.006692164 10.0584278955 c 0
 324.006692164 4.68052319077 317.924835476 -0.128217598987 306.366775938 -0.128217598987 c 0
 305.291731305 -0.128217598987 304.169310206 -0.0866155708182 303 0 c 0
 265 3 219 7 179 7 c 0
 129 7 93 0 52 0 c 0
EndSplineSet
Validated: 1
EndChar

StartChar: Q
Encoding: 81 81 18
Width: 665
GlyphClass: 1
Flags: HMW
HStem: 730 35<259 385.5>
VStem: 48 85<270 489.5 270 493> 533 85<297.5 488>
LayerCount: 2
Fore
SplineSet
133 379 m 0
 133 161 214 20 347 20 c 0
 470 20 533 161 533 378 c 0
 533 598 447 730 324 730 c 0
 194 730 133 600 133 379 c 0
743 -165 m 0
 754 -169 755 -172 755 -177 c 0
 755 -190 715 -206 666 -206 c 0
 595 -206 533 -135 360 -30 c 0
 338 -16 316 -15 301 -13 c 0
 151 7 48 157 48 379 c 0
 48 607 159 765 334 765 c 0
 502 765 618 607 618 379 c 0
 618 216 563 96 475 31 c 0
 446 10 434 -6 433 -18 c 0
 432 -26 438 -32 447 -37 c 0
 533 -82 649 -129 743 -165 c 0
EndSplineSet
Validated: 1
EndChar

StartChar: R
Encoding: 82 82 19
Width: 595
GlyphClass: 1
Flags: HMW
HStem: -15 21G<521 594.5> 0 24<52 52 303 303> 344 29<233.5 263> 721 29<270 320.5>
VStem: 136 69<405 419 405 422> 136 70<302.5 305.5 246.5 422> 419 77<497.5 606>
LayerCount: 2
Fore
SplineSet
247 373 m 0
 344 373 419 415 419 551 c 0
 419 661 360 721 281 721 c 0
 221 721 211 700 210 641 c 0
 209.090098049 599.144510237 204.868509853 516.720863982 204.868509853 441.188690205 c 0
 204.868509853 433.709531097 204.909901951 426.29794194 205 419 c 0
 205 391 220 373 247 373 c 0
581 -15 m 0
 461 -15 458 39 302 317 c 0
 290 339 277 344 249 344 c 0
 213 344 206 325 206 286 c 0
 206 207 207 151 209 110 c 0
 211 65 234 31 303 24 c 0
 317.241318655 22.0356801855 324.006692164 15.7304889955 324.006692164 10.0584278955 c 0
 324.006692164 4.68052319077 317.924835476 -0.128217598987 306.366775938 -0.128217598987 c 0
 305.291731305 -0.128217598987 304.169310206 -0.0866155708182 303 0 c 0
 265 3 220 8 170 8 c 0
 130 8 93 0 52 0 c 0
 37.2585343873 0 29.4937534679 5.16791458766 29.4937534679 10.7751664068 c 0
 29.4937534679 16.1987243474 36.7581184136 22.0333056018 52 24 c 0
 109 30 130 55 133 111 c 0
 135 152 136 238 136 367 c 0
 136 477 135 612 133 640 c 0
 130 697 109 719 52 726 c 0
 36.7581184136 727.475020799 29.4937534679 733.30141431 29.4937534679 738.843694518 c 0
 29.4937534679 744.573689683 37.2585343873 750 52 750 c 0
 93 750 120 743 160 743 c 0
 206 743 249 750 291 750 c 0
 426 750 496 683 496 550 c 0
 496 445 439 384 357 360 c 0
 345.600819679 355.976759887 339.147502444 350.604648023 339.147502444 343.280682748 c 0
 339.147502444 339.682160076 340.705400189 335.612439736 344 331 c 0
 418 226 506 114 594 7 c 0
 600.224162519 -0.468995023298 603.693466438 -5.52748877125 603.693466438 -8.88992656247 c 0
 603.693466438 -13.6308386936 596.796507465 -15 581 -15 c 0
EndSplineSet
Validated: 1
EndChar

StartChar: S
Encoding: 83 83 20
Width: 495
GlyphClass: 1
Flags: HMW
HStem: -15 34<214.5 299.5 212 306.5> 729 34<219.5 280.5>
VStem: 71 68<536.5 646> 384 66<114 248>
LayerCount: 2
Fore
SplineSet
249 -15 m 0
 180 -15 119 3 66 29 c 0
 57 33 52 42 51 54 c 0
 48.5313730334 104.195414987 46.7398704113 140.848343086 46.7398704113 176.774134487 c 0
 46.7398704113 184.507176787 46.8228756555 192.206528843 47 200 c 0
 47.5319206503 220.74490536 51.7420558169 231.869865063 57.0718816248 231.869865063 c 0
 61.7620198948 231.869865063 67.3192065027 223.25509464 72 205 c 0
 101 90 167 19 257 19 c 0
 342 19 384 76 384 152 c 0
 384 344 71 397 71 603 c 0
 71 689 137 763 262 763 c 0
 305 763 361 752 392 734 c 0
 404 727 410 718 411 708 c 0
 415 669 420 612 420 569 c 0
 420 555.522732493 414.954535015 547.721613093 409.113547626 547.721613093 c 0
 404.553042483 547.721613093 399.507577498 552.477267507 396 563 c 0
 355 686 313 729 248 729 c 0
 191 729 139 692 139 627 c 0
 139 446 450 396 450 176 c 0
 450 46 364 -15 249 -15 c 0
EndSplineSet
Validated: 1
EndChar

StartChar: T
Encoding: 84 84 21
Width: 567
GlyphClass: 1
Flags: HMW
HStem: 0 23<414 414> 0 24<150 150> 725 23<204 204.5 366 413 204 434.5>
VStem: 248 69<339.5 445>
LayerCount: 2
Fore
SplineSet
150 0 m 0
 148.830689794 -0.0866155708182 147.708268695 -0.128217598987 146.633224062 -0.128217598987 c 0
 135.075164524 -0.128217598987 128.993307836 4.68052319077 128.993307836 10.0584278955 c 0
 128.993307836 15.7304889955 135.758681345 22.0356801855 150 24 c 0
 219 31 243 64 245 109 c 0
 248 166 248 296 248 383 c 0
 248 507 246 616 244 666 c 0
 242 711 221 725 188 725 c 0
 114 725 76 663 46 600 c 0
 38.3623927227 583.770084536 30.9526489021 576.198980427 25.8374123077 576.198980427 c 0
 21.6669047175 576.198980427 19.0216287814 581.231733216 19.0216287814 590.707741805 c 0
 19.0216287814 593.957251864 19.332697157 597.729261805 20 602 c 0
 28 649 40 696 53 731 c 0
 65 762 81 783 91 783 c 0
 107 783 123 748 204 748 c 0
 238 748 298.222222222 747.555555556 348.814814815 747.555555556 c 0
 374.111111111 747.555555556 397 747.666666667 413 748 c 0
 475 750 499 783 515 783 c 0
 528 783 532 754 536 685 c 0
 538 659 540 627 540 589 c 0
 540 573.725906439 535.006702956 564.554731487 529.25722477 564.554731487 c 0
 524.090515574 564.554731487 518.31314983 571.960943731 515 589 c 0
 500 664 480 725 389 725 c 0
 343 725 323 710 320 657 c 0
 318 616 317 513 317 383 c 0
 317 273 317 158 320 110 c 0
 323 54 347 30 414 23 c 0
 429.241881586 21.5249792013 436.506246532 15.940328618 436.506246532 10.6438170358 c 0
 436.506246532 5.16791458766 428.741465613 0 414 0 c 0
 363 0 324 7 274 7 c 0
 234 7 188 3 150 0 c 0
EndSplineSet
Validated: 1
EndChar

StartChar: U
Encoding: 85 85 22
Width: 693
GlyphClass: 1
Flags: HMW
HStem: -15 47<314 414 314 414> 727 23<48 48 299 299 435 435 656 656>
VStem: 132 69 531 31<165 250 250 296>
AnchorPoint: "top" 356 859 basechar 0
LayerCount: 2
Fore
SplineSet
352 -15 m 0
 215 -15 132 51 132 236 c 0
 132 392 130 612 129 640 c 0
 127 697 105 720 48 727 c 0
 32.7581184136 728.475020799 25.4937534679 734.059671382 25.4937534679 739.356182964 c 0
 25.4937534679 744.832085412 33.2585343873 750 48 750 c 0
 89 750 125 743 165 743 c 0
 215 743 261 747 299 750 c 0
 300.170454005 750.086700297 301.293927127 750.128298945 302.369930573 750.128298945 c 0
 313.92594212 750.128298945 320.006692164 745.330215181 320.006692164 740.0733822 c 0
 320.006692164 734.528510618 313.241318655 728.473239861 299 727 c 0
 230 719 206 686 205 641 c 0
 204.109611797 590.247872417 200.840850136 404.721248927 200.840850136 284.893426203 c 0
 200.840850136 270.14194712 200.890388203 256.386133038 201 244 c 0
 202 104 259 32 369 32 c 0
 459 32 531 86 531 244 c 0
 531 348 531 364 529 525 c 0
 527 677 492 720 435 727 c 0
 419.758118414 728.475020799 412.493753468 734.059671382 412.493753468 739.356182964 c 0
 412.493753468 744.832085412 420.258534387 750 435 750 c 0
 476 750 524 743 545 743 c 0
 572 743 618 747 656 750 c 0
 657.170454005 750.086700297 658.293927127 750.128298945 659.369930573 750.128298945 c 0
 670.92594212 750.128298945 677.006692164 745.330215181 677.006692164 740.0733822 c 0
 677.006692164 734.528510618 670.241318655 728.473239861 656 727 c 0
 587 719 562 666 562 526 c 2
 562 250 l 2
 562 65 476 -15 352 -15 c 0
EndSplineSet
Validated: 524289
EndChar

StartChar: V
Encoding: 86 86 23
Width: 617
GlyphClass: 1
Flags: HMW
HStem: -19 179 726 24
VStem: 0 183 298 25<4.29497e+09 4.29497e+09>
LayerCount: 2
Fore
SplineSet
298 -8 m 0
 249 157 156 486 106 641 c 0
 91 686 82 719 21 726 c 0
 6.77243302997 727.897008929 0.191982175656 733.842491096 0.191982175656 739.356452403 c 0
 0.191982175656 744.965609754 7.00161143449 750.128217599 19.4979989189 750.128217599 c 0
 20.6197775597 750.128217599 21.7873820085 750.086615571 23 750 c 0
 52 747 61 743 101 743 c 0
 151 743 195 750 256 750 c 0
 270.131435324 750 277.139298794 745.250952097 277.139298794 740.034066535 c 0
 277.139298794 734.545055788 269.381273802 728.53812738 254 727 c 0
 199.730644483 721.934860152 182.635790179 708.492367917 182.635790179 679.853020573 c 0
 182.635790179 668.912921462 185.130279697 655.755289807 189 640 c 0
 206 572 274 325 318 189 c 0
 323.714285714 170.714285714 328.12244898 159.612244898 332.530612245 159.612244898 c 0
 335.836734694 159.612244898 339.142857143 165.857142857 343 180 c 0
 383 324 447 546 457 623 c 0
 458.033300718 630.878917971 458.566112198 638.390810501 458.566112198 645.509819797 c 0
 458.566112198 693.50746086 434.346106491 723.645812948 376 728 c 0
 360.365090018 729.042327332 352.335303907 734.973662867 352.335303907 740.414951568 c 0
 352.335303907 745.414315306 359.113746316 750 373 750 c 0
 453 750 497 743 502 743 c 0
 542 743 569 747 588 749 c 0
 589.776985846 749.190391341 591.461335709 749.280091396 593.049982271 749.280091396 c 0
 604.834614863 749.280091396 611.352961442 744.344147296 611.352961442 738.958809459 c 0
 611.352961442 733.630857968 604.972794151 727.86303922 591 726 c 0
 560 722 527 689 511 640 c 0
 459 484 395 248 323 -7 c 0
 320.540249419 -15.3631519766 315.418334751 -19.1280205321 310.372619128 -19.1280205321 c 0
 305.161775282 -19.1280205321 300.032199535 -15.1126983722 298 -8 c 0
EndSplineSet
Validated: 1
EndChar

StartChar: W
Encoding: 87 87 24
Width: 844
GlyphClass: 1
Flags: HMW
HStem: -12 21G -10 21G 720 30<449 449> 722 28<215.5 257 205 268.5> 726 24
VStem: -10 189 403 69 499 134 535 19<3 3> 703 129
LayerCount: 2
Fore
SplineSet
446 511 m 0
 449 501 455 501 458 511 c 2
 494 639 l 2
 497.663498271 653.882961724 499.387210899 666.197018139 499.387210899 676.338303102 c 0
 499.387210899 710.488170318 479.841254323 720 449 720 c 0
 413.205499546 720 398.592694324 708.177658475 398.592694324 681.421395946 c 0
 398.592694324 670.055338799 401.229647201 655.994381845 406 639 c 0
 413 614 429 567 446 511 c 0
323 184 m 0
 326.07951891 173.881580726 328.578419245 169.37580767 331.007565543 169.37580767 c 0
 334.100068757 169.37580767 337.07951891 176.678488002 341 189 c 0
 362 260 388 343 403 398 c 0
 407 411 405 418 402 428 c 0
 374 518 354 584 334 640 c 0
 316 691 294 722 243 722 c 0
 200.054644675 722 179.058025741 707.367509072 179.058025741 672.865881199 c 0
 179.058025741 663.181367901 180.712369634 651.931346106 184 639 c 0
 201 571 278 330 323 184 c 0
554 4 m 0
 551.971422738 -5.12859767835 548.399673336 -9.62767893597 544.719538588 -9.62767893597 c 0
 541.143090474 -9.62767893597 537.464278423 -5.37854663711 535 3 c 0
 510 87 470 214 432 332 c 0
 428 344 421 344 417 333 c 0
 384 230 365 172 323 9 c 0
 319.073897104 -5.72288585893 314.425249649 -12.2569333706 309.88145305 -12.2569333706 c 0
 305.166609784 -12.2569333706 300.564659966 -5.22169131286 297 7 c 0
 257 152 157 485 102 640 c 0
 86 685 82 719 11 726 c 0
 -3.22756697003 727.422756697 -9.80801782434 733.343816991 -9.80801782434 738.963187207 c 0
 -9.80801782434 744.700352956 -2.94879117598 750.123047755 9.63450126531 750.123047755 c 0
 10.7144140526 750.123047755 11.8364861411 750.083108133 13 750 c 0
 52 746 59 742 99 742 c 0
 149 742 176 750 234 750 c 0
 280 750 309 742 330 742 c 0
 342.315789474 742 403.096952909 750.077562327 443.471643097 750.077562327 c 0
 445.71468144 750.077562327 447.894736842 750.052631579 450 750 c 0
 490 748 531 743 554 743 c 0
 575 743 581 745 610 748 c 0
 612.224639529 748.317805647 614.304090941 748.46517307 616.232335765 748.46517307 c 0
 627.269825199 748.46517307 633.352961442 743.636611863 633.352961442 738.306491155 c 0
 633.352961442 732.847790164 626.972794151 726.86303922 613 725 c 0
 552 716 539 685 525 640 c 2
 471 463 l 2
 469.607695155 457.894882233 468.861561237 452.789764467 468.861561237 447.58468371 c 0
 468.861561237 441.574374158 469.856406461 435.430780618 472 429 c 2
 548 187 l 2
 551.77105601 174.609387395 555.54211202 168.023208844 559.156819131 168.023208844 c 0
 562.251890318 168.023208844 565.232333723 172.851890318 568 183 c 0
 615 346 639 423 677 572 c 0
 690.888888889 626.444444444 703.234567901 663.913580247 703.234567901 688.179698217 c 0
 703.234567901 707.592592593 695.333333333 718.555555556 674 723 c 0
 657.983333333 726.1 649.975 733.204166667 649.975 739.347333333 c 0
 649.975 745.094166667 656.983333333 750 671 750 c 0
 682 750 717 742 741 742 c 0
 762 742 779 746 809 749 c 0
 811.333333333 749.25 813.506944444 749.368055556 815.513888889 749.368055556 c 0
 826.37322914 749.368055556 832.352961442 745.911666592 832.352961442 741.19913737 c 0
 832.352961442 736.33137669 825.972794151 730.123357855 812 725 c 0
 780 713 745 666 715 567 c 0
 656 371 636 316 590 147 c 0
 575 90 568 64 554 4 c 0
EndSplineSet
Validated: 1
EndChar

StartChar: X
Encoding: 88 88 25
Width: 660
GlyphClass: 1
Flags: HMW
HStem: 0 24<397 397> 322 137 724 25<45 45> 725 24
VStem: 2 199 22 209 296 70 441 183 452 214
LayerCount: 2
Fore
SplineSet
27 0 m 0
 25.7873820085 -0.0866155708182 24.6103997384 -0.128217598987 23.4706777201 -0.128217598987 c 0
 9.67827539836 -0.128217598987 1.3425437604 5.96429534729 1.3425437604 12.1032932362 c 0
 1.3425437604 17.170608881 7.02197271648 22.2695963622 20 24 c 0
 93 31 176 144 221 225 c 0
 251 279 275 319 291 351 c 0
 294.383203415 357.76640683 296.131254637 363.832034148 296.131254637 369.987175168 c 0
 296.131254637 376.567297699 294.133481812 383.249721603 290 391 c 0
 235 494 168 613 153 640 c 0
 120 698 95 718 45 724 c 0
 29.3927314845 725.950908564 22.1111847152 731.94573912 22.1111847152 737.575752876 c 0
 22.1111847152 743.489106879 30.1440870921 749 45 749 c 0
 76 749 96 742 136 742 c 0
 196 742 260 746 296 749 c 0
 297.126002421 749.086615571 298.193862349 749.128217599 299.204229596 749.128217599 c 0
 308.57321197 749.128217599 312.998644919 745.551037316 312.998644919 741.116788245 c 0
 312.998644919 734.987407225 304.542959138 727.220422734 289 725 c 0
 247.07759794 720.485279778 230.945549314 704.73927661 230.945549314 682.322856653 c 0
 230.945549314 669.982983421 235.834080729 655.621758606 244 640 c 2
 333 474 l 2
 338.335705707 464.395729727 341.963226091 459.061922763 345.705435987 459.061922763 c 0
 348.97674989 459.061922763 352.335705707 463.137840844 357 472 c 2
 411 577 l 2
 427.569686966 607.550360344 440.921938079 644.267472741 440.921938079 673.545694787 c 0
 440.921938079 700.810671618 429.34282335 721.624619024 398 725 c 0
 382.457040862 727.220422734 374.001355081 734.987407225 374.001355081 741.116788245 c 0
 374.001355081 745.551037316 378.42678803 749.128217599 387.795770404 749.128217599 c 0
 388.806137651 749.128217599 389.873997579 749.086615571 391 749 c 0
 427 746 455 742 495 742 c 0
 535 742 567 749 598 749 c 0
 614.470031888 749 624.811672507 742.549061822 624.811672507 736.241836621 c 0
 624.811672507 731.44346518 618.82617171 726.728271464 605 725 c 0
 555 719 492 649 450 577 c 0
 440 559 423 525 372 432 c 0
 368.383719651 424.767439302 366.36876382 418.602428283 366.36876382 412.539827211 c 0
 366.36876382 406.867108173 368.132891827 401.28405078 372 395 c 2
 388 367 l 2
 459 242 507 159 538 109 c 0
 566 64 585 39 648 24 c 0
 660.628140115 20.9518282481 666.240362106 15.628223591 666.240362106 10.7540079343 c 0
 666.240362106 4.98940152636 658.390452048 -0.146636867105 645.012662126 -0.146636867105 c 0
 643.725586717 -0.146636867105 642.38734338 -0.0990959556947 641 0 c 0
 611 3 592 7 532 7 c 0
 492 7 438 0 397 0 c 0
 382.131752211 0 374.360709407 5.25718887824 374.360709407 10.9199343433 c 0
 374.360709407 16.3021768829 381.380945989 22.0507927986 396 24 c 0
 433.006424393 27.4265207772 452.636102725 39.3065936924 452.636102725 65.111625687 c 0
 452.636102725 76.9614536406 448.496787803 91.747641015 440 110 c 0
 424 143 390 211 338 306 c 0
 332.479390201 316.489158618 327.873094379 322.406747353 323.003346037 322.406747353 c 0
 319.05206098 322.406747353 314.927329221 318.510841382 310 310 c 0
 277 252 244 199 228 165 c 0
 212.335532198 131.223491301 200.984306512 97.9262317267 200.984306512 72.0289051188 c 0
 200.984306512 45.0221393623 213.328935605 26.0629122871 246 23 c 0
 262.6359106 21.33640894 271.891727293 14.4452513631 271.891727293 8.63577664482 c 0
 271.891727293 3.96886412216 265.918619754 1.33226762955e-15 253 0 c 0
 202 0 149 7 109 7 c 0
 69 7 67 3 27 0 c 0
EndSplineSet
Validated: 1
EndChar

StartChar: Y
Encoding: 89 89 26
Width: 620
GlyphClass: 1
Flags: HMW
HStem: 0 22<460 460> 0 24<169 169> 724 25<30 30>
VStem: 8 187 273 70<242 249> 455 149
AnchorPoint: "top" 308 855 basechar 0
LayerCount: 2
Fore
SplineSet
169 0 m 0
 154.258534387 0 146.493753468 5.16791458766 146.493753468 10.7751664068 c 0
 146.493753468 16.1987243474 153.758118414 22.0333056018 169 24 c 0
 246 30 267 54 270 110 c 0
 272 141 273 192 273 238 c 0
 273 260 271 275 260 307 c 0
 227 400 136 611 123 640 c 0
 103 685 73 718 30 724 c 0
 15.2583904633 726.456934923 8.24353832157 733.018709712 8.24353832157 738.82063847 c 0
 8.24353832157 744.315111644 14.5346276598 749.128136491 26.5121853821 749.128136491 c 0
 27.625796602 749.128136491 28.7885634533 749.086531182 30 749 c 0
 62 746 89 742 129 742 c 0
 189 742 217 749 258 749 c 0
 272.622854892 749 280.126588755 743.914913551 280.126588755 738.360094662 c 0
 280.126588755 732.898614136 272.872908733 726.983054498 258 725 c 0
 217.570199725 720.589476334 194.972058544 707.533299773 194.972058544 677.887333507 c 0
 194.972058544 667.203440769 197.907007388 654.364937892 204 639 c 0
 230 572 277 459 314 365 c 0
 319.328357793 351.146269737 322.385403845 343.538646765 325.894169519 343.538646765 c 0
 328.970482795 343.538646765 332.394029352 349.386566042 338 362 c 0
 377 452 426 555 447 616 c 0
 452.390199058 631.701884213 454.924404192 645.701156663 454.924404192 658.036432006 c 0
 454.924404192 698.335823734 427.876037076 720.874851846 385 727 c 0
 370.634003546 728.915466194 363.835341743 734.270629956 363.835341743 739.331937455 c 0
 363.835341743 744.839978588 371.887129905 750 387 750 c 0
 452 750 480 742 514 742 c 0
 554 742 564 749 584 749 c 0
 597.517241379 749 604.275862069 745.504161712 604.275862069 740.875189635 c 0
 604.275862069 735.915576694 596.517241379 729.655172414 581 725 c 0
 539 713 517 685 497 640 c 0
 458 552 387 392 354 310 c 0
 346 290 343 274 343 242 c 2
 346 109 l 2
 347 64 371 31 460 22 c 0
 474.241318655 21.0178400927 481.006692164 15.2124897683 481.006692164 9.79480770482 c 0
 481.006692164 4.65902637518 474.927053098 -0.128380529726 463.373097576 -0.128380529726 c 0
 462.296131657 -0.128380529726 461.171602388 -0.0867853620739 460 0 c 0
 402 3 356 7 306 7 c 0
 266 7 230 0 169 0 c 0
EndSplineSet
Validated: 8912897
EndChar

StartChar: Z
Encoding: 90 90 27
Width: 522
GlyphClass: 1
Flags: HMW
HStem: 0 27 723 26<228.5 432>
VStem: 22 115 356 112
LayerCount: 2
Fore
SplineSet
59 0 m 0
 32.2583180702 0 21.4042575446 5.76144512458 21.4042575446 19.1810394729 c 0
 21.4042575446 37.8781250158 42.4741002275 71.441167774 71 125 c 2
 336 613 l 2
 348.328381941 635.843766539 355.66058564 656.58387908 355.66058564 673.742443969 c 0
 355.66058564 703.904866457 333.003448333 723 275 723 c 0
 182 723 115 639 89 592 c 0
 81.5228434318 578.365185082 74.6260453793 571.88812519 69.7560830051 571.88812519 c 0
 65.3365919238 571.88812519 62.5863142042 577.222348892 62.5863142042 587.382060128 c 0
 62.5863142042 591.480554654 63.0338858241 596.364333974 64 602 c 0
 75 662 98 723 118 771 c 0
 126.679743592 792.079377294 134.206355314 800.474304022 141.056448926 800.474304022 c 0
 145.255219783 800.474304022 149.199816851 797.320256408 153 792 c 0
 180.739130435 749.913043478 247.820415879 748.998109641 313.986767486 748.998109641 c 0
 316.994328922 748.998109641 320 749 323 749 c 2
 432 749 l 2
 457.761365043 749 467.819126831 742.399934864 467.819126831 729.308378465 c 0
 467.819126831 714.957909011 455.7340059 692.80744801 439 663 c 0
 390 575 243 293 154 129 c 0
 142.951511636 108.602790713 137.199907084 91.5763256697 137.199907084 77.6477724271 c 0
 137.199907084 42.4100000541 174.012286798 27 255 27 c 0
 368 27 428 104 465 167 c 0
 474.523376182 183.32578774 483.018467852 190.602671781 488.619991159 190.602671781 c 0
 492.958690482 190.602671781 495.561426419 186.236988077 495.561426419 178.329054595 c 0
 495.561426419 173.933370956 494.757239601 168.443211869 493 162 c 0
 480 114 468 78 459 54 c 0
 444 14 428 0 381 0 c 2
 205 2 l 2
 150 2 114 0 59 0 c 0
EndSplineSet
Validated: 1
EndChar

StartChar: a
Encoding: 97 97 28
Width: 467
GlyphClass: 1
Flags: HMW
HStem: -15 53<173 175.5> -14 37<359.5 414.5> 498 32<223 248.5>
VStem: 56 75<86.5 112> 296 64<133 215 215 223 314 416 416 424>
AnchorPoint: "top" 225 686 basechar 0
LayerCount: 2
Fore
SplineSet
194 38 m 0
 253 38 296 83 296 133 c 2
 296 215 l 2
 296 231 291 238 279 238 c 0
 269 238 245 224 230 216 c 0
 174 186 131 146 131 104 c 0
 131 69 152 38 194 38 c 0
148 -15 m 0
 87 -15 56 23 56 74 c 0
 56 150 144 195 222 237 c 0
 291 274 296 285 296 314 c 2
 296 416 l 2
 296 471 271 498 226 498 c 0
 172 498 145 455 138 408 c 0
 129 346 96 330 67 330 c 0
 57.3293062383 330 43.2315205083 336.087251456 43.2315205083 353.613385705 c 0
 43.2315205083 359.647065348 44.902392322 367.036483204 49 376 c 0
 85 454 180 530 266 530 c 0
 332 530 360 485 360 424 c 2
 360 88 l 2
 360 46 382 23 408 23 c 0
 421 23 427 28 440 31 c 0
 441.813345818 31.5440037453 443.725338327 31.8249496463 445.527283535 31.8249496463 c 0
 449.956570157 31.8249496463 453.720945339 30.1274601044 453.720945339 26.4668127001 c 0
 453.720945339 23.4040205276 451.085753968 18.9669507102 444 13 c 0
 423 -4 402 -14 376 -14 c 0
 343 -14 325 -4 305 31 c 0
 297 46 295 53 287 53 c 0
 281 53 275 47 272 44 c 0
 235 9 203 -15 148 -15 c 0
EndSplineSet
Validated: 8912897
EndChar

StartChar: b
Encoding: 98 98 29
Width: 551
GlyphClass: 1
Flags: HMW
HStem: -15 32<252.5 329.5 252.5 353.5> -10 21G 475 55<284 340.5> 810 20G
VStem: 74 71 74 73.5 83 62 437 71<188.5 314.5>
LayerCount: 2
Fore
SplineSet
148 168 m 0
 154 75 215 17 290 17 c 0
 369 17 437 102 437 243 c 0
 437 386 385 475 296 475 c 0
 211 475 151 386 147 260 c 0
 146.585786438 247.159379566 146.343145751 234.490332008 146.343145751 221.850721701 c 0
 146.343145751 203.975613382 146.828427125 186.159379566 148 168 c 0
26 770 m 0
 13.4376909373 771.046859089 6.08097314325 776.203395494 6.08097314325 781.597581472 c 0
 6.08097314325 786.508862652 12.1794567841 791.617147721 26 794 c 0
 67 801 107 812 128 826 c 0
 131.94123994 828.627493293 135.990350521 829.852668257 139.615901646 829.852668257 c 0
 146.627074743 829.852668257 152.054275134 825.27091787 152.054275134 817.38849299 c 0
 152.054275134 813.313997353 145 530.526703083 145 410 c 0
 145 397 158 394 163 408 c 0
 189 478 243 530 325 530 c 0
 415 530 508 447 508 281 c 0
 508 96 412 -15 295 -15 c 0
 194 -15 168 56 142 56 c 0
 128 56 120 39 103 9 c 0
 95.841050079 -3.40884652977 88.4543198736 -9.66762538294 82.9053217387 -9.66762538294 c 0
 77.493685088 -9.66762538294 73.8299231344 -3.71487450645 73.8299231344 8.29146341793 c 0
 73.8299231344 13.1553117124 84.6666666667 178.767254489 84.6666666667 494.555555556 c 0
 84.6666666667 573.333333333 84 647.666666667 83 712 c 0
 82 753 57 767 26 770 c 0
EndSplineSet
Validated: 1
EndChar

StartChar: c
Encoding: 99 99 30
Width: 455
GlyphClass: 1
Flags: HMW
HStem: -15 60 500 30<209.5 272>
VStem: 43 66<200 337>
LayerCount: 2
Fore
SplineSet
245 -15 m 0
 129 -15 43 69 43 255 c 0
 43 419 151 530 268 530 c 0
 319 530 359 516 394 488 c 0
 403.355405772 480.757105209 407.428428822 471.419472443 407.428428822 461.911082994 c 0
 407.428428822 439.912546917 385.626721399 417 357 417 c 0
 316 417 303 500 241 500 c 0
 162 500 109 413 109 283 c 0
 109 119.181193655 175.224738323 44.9605626887 261.541581734 44.9605626887 c 0
 262.690862182 44.9605626887 263.843704568 44.9737205584 265 45 c 0
 311 46 362 71 406 129 c 0
 413.011796859 138.349062479 419.568359504 142.994038072 423.778126549 142.994038072 c 0
 426.723465697 142.994038072 428.520043649 140.720313119 428.520043649 136.193107486 c 0
 428.520043649 130.58002419 425.758266722 121.502793436 419 109 c 0
 377 34 316 -15 245 -15 c 0
EndSplineSet
Validated: 1
EndChar

StartChar: d
Encoding: 100 100 31
Width: 567
GlyphClass: 1
Flags: HMW
HStem: -15 53<212.5 271.5> 17 24<530 530> 501 29<225 292.5 210 299> 770 24<348 348> 810 20G
VStem: 43 73<200 340> 403 63 405 61<245 258 258 265.5> 416 50
LayerCount: 2
Fore
SplineSet
258 38 m 0
 329.530859713 38 405.009762552 127.817981116 405.009762552 242.735691082 c 0
 405.009762552 286.406210878 404.970852359 319.612100451 404 340 c 0
 401 443 334 501 264 501 c 0
 186 501 116 413 116 271 c 0
 116 129 167 38 258 38 c 0
530 41 m 0
 542.562309063 39.9531409114 549.919026857 34.7966045055 549.919026857 29.4024185279 c 0
 549.919026857 24.4911373484 543.820543216 19.3828522786 530 17 c 0
 489 10 457 4 428 -15 c 0
 424.05876006 -17.6274932934 420.009649479 -18.8526682573 416.384098354 -18.8526682573 c 0
 409.372925257 -18.8526682573 403.945724866 -14.27091787 403.945724866 -6.38849299035 c 0
 403.945724866 1.42653941987 416 91.8990140323 416 121 c 0
 416 132 405 134 399 121 c 0
 363 41 314 -15 229 -15 c 0
 131 -15 43 73 43 247 c 0
 43 433 157 530 263 530 c 0
 322 530 358 503 373 490 c 0
 381.666666667 482.333333333 388 479.222222222 392.592592593 479.222222222 c 0
 401.777777778 479.222222222 404 491.666666667 404 505 c 2
 403 723 l 2
 403 753 379 767 348 770 c 0
 335.437690937 771.046859089 328.080973143 776.203395494 328.080973143 781.597581472 c 0
 328.080973143 786.508862652 334.179456784 791.617147721 348 794 c 0
 389 801 429 812 450 826 c 0
 454.117749006 828.745166004 458.353247018 830.077343935 462.100417971 830.077343935 c 0
 468.875539679 830.077343935 474.054275134 825.722331255 474.054275134 817.489952454 c 0
 474.054275134 813.614215949 466 710.872351244 466 430 c 2
 466 258 l 2
 466 204 469 120 473 89 c 0
 477 58 499 44 530 41 c 0
EndSplineSet
Validated: 1
EndChar

StartChar: e
Encoding: 101 101 32
Width: 473
GlyphClass: 1
Flags: HMW
HStem: -15 60 308 27<139 146 146 230 139 375> 503 27<209.5 273.5>
VStem: 43 68<200.5 286.5 200.5 336.5> 349 81
AnchorPoint: "top" 251 678 basechar 0
LayerCount: 2
Fore
SplineSet
153 335 m 0
 159.695652174 335 166.179584121 334.998109641 172.457549108 334.998109641 c 0
 310.572778828 334.998109641 349 335.913043478 349 378 c 0
 349 439 306 503 241 503 c 0
 178 503 134 449 121 374 c 0
 120.133931253 369.496442514 119.687904547 365.382924067 119.687904547 361.659444659 c 0
 119.687904547 343.886481553 129.849984985 335 153 335 c 0
235 -15 m 0
 122 -15 43 74 43 244 c 0
 43 429 146 530 256 530 c 0
 365.339390203 530 430.044846188 441.702434482 430.044846188 369.288059287 c 0
 430.044846188 351.54763008 424.956906756 308 375 308 c 2
 146 308 l 2
 123 308 111 301 111 272 c 0
 111 129.832183722 174.257275713 44.9912735593 268.344608082 44.9912735593 c 0
 268.8953512 44.9912735593 269.447150674 44.9941805334 270 45 c 0
 333 46 379 76 411 118 c 0
 420.079870039 130.238085704 427.445402763 135.618822152 431.866087501 135.618822152 c 0
 434.782253784 135.618822152 436.416950308 133.277359684 436.416950308 129.018306867 c 0
 436.416950308 123.379211683 433.551255493 114.378496382 427 103 c 0
 377 18 300 -15 235 -15 c 0
EndSplineSet
Validated: 524289
EndChar

StartChar: f
Encoding: 102 102 33
Width: 338
GlyphClass: 1
Flags: HMW
HStem: 0 22<35 35 286 286> 482 33<269 302.5>
VStem: 125 63<417 430>
LayerCount: 2
Fore
SplineSet
35 0 m 0
 20.2585343873 0 12.4937534679 4.90951885828 12.4937534679 10.1313285896 c 0
 12.4937534679 15.1820715465 19.7581184136 20.5249792013 35 22 c 0
 92 28 121 50 124 103 c 0
 126.25 142 127.375 177.625 127.375 215.78125 c 0
 127.375 228.5 127.25 241.5 127 255 c 2
 125 412 l 2
 125 448 114 479 58 486 c 0
 39.5234266282 488.173714514 31.0875521847 494.48183447 31.0875521847 500.430851309 c 0
 31.0875521847 505.429025188 37.042287086 510.173714514 48 512 c 0
 105 522 121 540 149 611 c 0
 188 709 284 849 444 849 c 0
 491 849 513 814 513 796 c 0
 513 781 491 777 473 776 c 0
 443 775 414 774 379 770 c 0
 257 756 180 665 180 581 c 0
 180 530 203 515 248 515 c 2
 320 515 l 2
 327.435939526 515 330.890768894 512.080519218 330.890768894 507.978284257 c 0
 330.890768894 498.288600434 311.615308854 482 280 482 c 0
 271.2 482 262.56 482.16 254.528 482.16 c 0
 242.48 482.16 231.8 481.8 224 480 c 0
 191 473 188 444 188 417 c 2
 192 105 l 2
 193 50 217 29 286 22 c 0
 300.241318655 20.5267601391 307.006692164 14.7126489028 307.006692164 9.41323915011 c 0
 307.006692164 4.41024420709 300.976975502 -0.134017140754 289.515424288 -0.134017140754 c 0
 288.395308459 -0.134017140754 287.223314346 -0.09061587747 286 0 c 0
 248 3 202 7 152 7 c 0
 112 7 76 0 35 0 c 0
EndSplineSet
Validated: 1
EndChar

StartChar: g
Encoding: 103 103 34
Width: 561
GlyphClass: 1
Flags: HMW
HStem: -204 51<185.5 266.5> 53 58<338 396> 162 33<217 274> 453 7 505 25<202 269.5>
VStem: 37 40<74 95> 39 60<-99 -91> 59 79<310.5 393.5> 73 26<-99 -19> 343 78<298 357.5 298 384.5> 465 57<-58 -2.5>
LayerCount: 2
Fore
SplineSet
251 195 m 0
 318 195 343 248 343 336 c 0
 343 433 303 505 236 505 c 0
 168 505 138 434 138 357 c 0
 138 259 183 195 251 195 c 0
233 -153 m 0
 395 -153 465 -93 465 -29 c 0
 465 24 430 53 362 53 c 0
 243 53 99 11 99 -74 c 0
 99 -124 138 -153 233 -153 c 0
171 -204 m 0
 82 -204 39 -168 39 -106 c 0
 39 -76 52 -53 66 -34 c 0
 71 -28 73 -23 73 -19 c 0
 74 -13 69 -7 61 4 c 0
 44 29 37 47 37 68 c 0
 37 122 72 148 122 173 c 0
 133.142139263 178.571069632 139.318387832 184.7628756 139.318387832 191.22960137 c 0
 139.318387832 196.370567116 135.4149677 201.685283558 127 207 c 0
 87 232 59 281 59 340 c 0
 59 447 145 530 249 530 c 0
 301 530 350 507 381 470 c 0
 386.409090909 463.431818182 391.668904959 460.147727273 397.990620304 460.147727273 c 0
 408.030991736 460.147727273 420.75 468.431818182 441 485 c 0
 473 511 489 530 510 530 c 0
 533 530 560 499 560 469 c 0
 560 455 550 447 537 447 c 0
 511 447 478 453 460 453 c 0
 446 453 436 452 426 445 c 0
 417.447021056 438.727815441 414.746318017 427.253607854 414.746318017 415.212043221 c 0
 414.746318017 406.135413753 416.280794385 396.736425267 418 389 c 0
 420 377 421 364 421 351 c 0
 421 245 336 162 212 162 c 0
 130 162 77 130 77 87 c 0
 77 61 90 55 116 55 c 0
 171 55 284 111 392 111 c 0
 475 111 522 68 522 7 c 0
 522 -123 362 -204 171 -204 c 0
EndSplineSet
Validated: 1
EndChar

StartChar: h
Encoding: 104 104 35
Width: 588
GlyphClass: 1
Flags: HMW
HStem: 0 20<262.5 318.5> 0 22<31 31 575 575> 470 60 770 24<51 51> 810 20G
VStem: 112 56 112 65.5 416 64
LayerCount: 2
Fore
SplineSet
290 20 m 0
 376 20 411 52 415 103 c 0
 417.143593539 135.153903092 418.138438763 191.144333732 418.138438763 245.731184876 c 0
 418.138438763 293.00478468 417.392304845 339.225699861 416 368 c 0
 413.083333333 436.055555556 386.536265432 470.083333333 335.439836248 470.083333333 c 0
 333.979938272 470.083333333 332.5 470.055555556 331 470 c 0
 242 468 176 376 177 260 c 2
 178 113 l 2
 179 39 207 20 290 20 c 0
31 0 m 0
 15.8770739522 0 8.12346332121 4.82817216969 8.12346332121 10.0010723452 c 0
 8.12346332121 15.0898771317 15.6270235828 20.5122926048 31 22 c 0
 88 28 109 49 112 103 c 0
 113.540659229 129.576371692 114.339558814 218.905609206 114.339558814 322.018782256 c 0
 114.339558814 486.617433184 112.30384635 686.339558814 108 722 c 0
 105 750 84 768 51 770 c 0
 37.8773912182 771.009431445 31.1232314468 775.839932296 31.1232314468 781.020105703 c 0
 31.1232314468 786.103479036 37.6273245041 791.523578612 51 794 c 0
 97 802 133 813 153 826 c 0
 156.94123994 828.627493293 161.098221162 829.852668257 164.833227548 829.852668257 c 0
 171.732625758 829.852668257 177.192144039 825.672075736 177.192144039 818.427456903 c 0
 177.192144039 814.222177578 168 601.418542909 168 398 c 0
 168 390.730369778 172.314083557 387.235562667 177.302042646 387.235562667 c 0
 181.919995428 387.235562667 187.11555581 390.231111619 190 396 c 0
 230 483 284 530 355 530 c 0
 436 530 480 476 480 374 c 2
 481 102 l 2
 481 55 513 28 575 22 c 0
 589 20.5 596 14.5 596 9.125 c 0
 596 4.2370603414 590.211143624 -0.134017140754 578.633430871 -0.134017140754 c 0
 577.479765908 -0.134017140754 576.268622285 -0.09061587747 575 0 c 0
 542.248350315 2.58565655411 505.039620752 7.39985304683 468.495801444 7.39985304683 c 0
 462.639767705 7.39985304683 456.800808242 7.27622896393 451 7 c 0
 398 5 345 0 292 0 c 0
 233 0 188 7 148 7 c 0
 108 7 72 0 31 0 c 0
EndSplineSet
Validated: 33
EndChar

StartChar: i
Encoding: 105 105 36
Width: 301
GlyphClass: 1
Flags: HMW
HStem: 0 22<24 24 271 271> 470 24<48 48> 510 20G 623 108<137.5 166.5>
VStem: 98 108<662.5 691.5> 112 62<231 284.5>
LayerCount: 2
Fore
SplineSet
24 0 m 0
 9.25853438727 0 1.49375346789 4.90951885828 1.49375346789 10.1313285896 c 0
 1.49375346789 15.1820715465 8.75811841361 20.5249792013 24 22 c 0
 88 28 106 50 109 103 c 0
 112 155 112 201 112 255 c 0
 112 314 109 377 105 422 c 0
 102 453 79 468 48 470 c 0
 35.4376909373 471.046859089 28.0809731432 476.203395494 28.0809731432 481.597581472 c 0
 28.0809731432 486.508862652 34.1794567841 491.617147721 48 494 c 0
 89 501 132 512 153 526 c 0
 156.94123994 528.627493293 160.990350521 529.852668257 164.615901646 529.852668257 c 0
 171.627074743 529.852668257 177.054275134 525.27091787 177.054275134 517.38849299 c 0
 177.054275134 514.764430303 174 554.298723923 174 255 c 0
 174 207 177 155 178 102 c 0
 179 60 203 29 271 22 c 0
 285.241318655 20.5267601391 292.006692164 14.7126489028 292.006692164 9.41323915011 c 0
 292.006692164 4.41024420709 285.976975502 -0.134017140754 274.515424288 -0.134017140754 c 0
 273.395308459 -0.134017140754 272.223314346 -0.09061587747 271 0 c 0
 234 3 188 7 148 7 c 0
 108 7 72 0 24 0 c 0
152 623 m 0
 123 623 98 648 98 677 c 0
 98 706 123 731 152 731 c 0
 181 731 206 706 206 677 c 0
 206 648 181 623 152 623 c 0
EndSplineSet
Validated: 33
EndChar

StartChar: j
Encoding: 106 106 37
Width: 239
GlyphClass: 1
Flags: HMW
HStem: -200 79 470 24<39 39> 510 20G 623 108<107.5 136.5>
VStem: 68 108<662.5 691.5> 102 60<101.5 192 192 218.5>
LayerCount: 2
Fore
SplineSet
122 623 m 0
 93 623 68 648 68 677 c 0
 68 706 93 731 122 731 c 0
 151 731 176 706 176 677 c 0
 176 648 151 623 122 623 c 0
-50 -200 m 0
 -78 -200 -119 -175 -119 -139 c 0
 -119 -118 -69 -122 -31 -121 c 0
 53 -118 102 -61 102 65 c 2
 102 192 l 2
 102 245 99 398 96 422 c 0
 92 453 70 468 39 470 c 0
 26.4376909373 471.046859089 19.0809731432 476.203395494 19.0809731432 481.597581472 c 0
 19.0809731432 486.508862652 25.1794567841 491.617147721 39 494 c 0
 80 501 120 512 141 526 c 0
 144.94123994 528.627493293 148.990350521 529.852668257 152.615901646 529.852668257 c 0
 159.627074743 529.852668257 165.054275134 525.27091787 165.054275134 517.38849299 c 0
 165.054275134 513.654483144 162 567.037079895 162 144 c 0
 162 59 153 23 103 -63 c 0
 37 -176 -13 -200 -50 -200 c 0
EndSplineSet
Validated: 33
EndChar

StartChar: k
Encoding: 107 107 38
Width: 556
GlyphClass: 1
Flags: HMW
HStem: 0 22<31 31 274 274 342 342> 497 19 774 24<51 51> 814 20G
VStem: 115 62<274.5 364.5> 115 65 350 177 387 174
LayerCount: 2
Fore
SplineSet
31 0 m 0
 16.2585343873 0 8.49375346789 4.90951885828 8.49375346789 10.1313285896 c 0
 8.49375346789 15.1820715465 15.7581184136 20.5249792013 31 22 c 0
 88 28 109 50 112 103 c 0
 115 155 115 281 115 335 c 0
 115 394 112 697 108 726 c 0
 104 757 82 771 51 774 c 0
 38.4376909373 775.046859089 31.0809731432 780.203395494 31.0809731432 785.597581472 c 0
 31.0809731432 790.508862652 37.1794567841 795.617147721 51 798 c 0
 92 805 134 816 155 830 c 0
 158.94123994 832.627493293 162.990350521 833.852668257 166.615901646 833.852668257 c 0
 173.627074743 833.852668257 179.054275134 829.27091787 179.054275134 821.38849299 c 0
 179.054275134 817.659224301 175.959481645 766.148155495 175.959481645 448.474465563 c 0
 175.959481645 367.500167274 176.291502622 301.524196246 177 287 c 0
 177 272.4083332 179.044000704 265.311335648 184.325017201 265.311335648 c 0
 188.092001472 265.311335648 193.506000096 268.922333424 201 276 c 0
 234 308 266 340 309 393 c 0
 332.925979113 422.490160302 350.659935765 447.026702635 350.659935765 465.231485604 c 0
 350.659935765 479.744513846 339.38924039 490.233435546 311 496 c 0
 297.411752716 498.613124478 289.832514623 504.230753551 289.832514623 508.713192847 c 0
 289.832514623 512.307569309 294.706046824 515.172006446 305.262748327 515.172006446 c 0
 306.731148843 515.172006446 308.30950643 515.116585763 310 515 c 0
 340 513.5 374.25 512.5 408.875 512.5 c 0
 443.5 512.5 478.5 513.5 510 516 c 0
 510.641730086 516.032086504 511.266987472 516.047700308 511.875474848 516.047700308 c 0
 521.550962936 516.047700308 526.986352488 512.099934797 526.986352488 507.65746671 c 0
 526.986352488 503.672078018 522.611902958 499.288548323 513 497 c 0
 442 481 392 450 300 341 c 0
 294.712485668 334.751119425 291.735533965 328.502238851 291.735533965 321.253774666 c 0
 291.735533965 313.422732484 295.210246817 304.424971335 303 293 c 0
 353 219 383 177 407 147 c 0
 434 114 473 50 540 24 c 0
 553.872758812 18.5499876094 560.626704264 12.1180699278 560.626704264 7.37994495646 c 0
 560.626704264 3.39716717665 555.854525794 0.61118335419 546.526876564 0.61118335419 c 0
 544.554298847 0.61118335419 542.37799014 0.735778873301 540 1 c 0
 515 3 489 7 459 7 c 0
 419 7 393 0 342 0 c 0
 327.258534387 0 319.493753468 4.90951885828 319.493753468 10.1313285896 c 0
 319.493753468 15.1820715465 326.758118414 20.5249792013 342 22 c 0
 375.327662336 24.9845667763 387.375965215 34.6498626845 387.375965215 49.0265956545 c 0
 387.375965215 63.5520130749 375.077166118 82.8868230265 360 105 c 0
 339 136 303 186 253 251 c 0
 247.397972904 258.639127859 242.055307027 262.128476202 236.311571197 262.128476202 c 0
 230.777051309 262.128476202 224.870147332 258.888697713 218 253 c 0
 207 243 203 240 191 228 c 0
 180 217 180 198 180 179 c 2
 180 102 l 2
 180 60 205 29 274 22 c 0
 288.241318655 20.5267601391 295.006692164 14.7126489028 295.006692164 9.41323915011 c 0
 295.006692164 4.41024420709 288.976975502 -0.134017140754 277.515424288 -0.134017140754 c 0
 276.395308459 -0.134017140754 275.223314346 -0.09061587747 274 0 c 0
 236 3 190 7 150 7 c 0
 108 7 72 0 31 0 c 0
EndSplineSet
Validated: 1
EndChar

StartChar: l
Encoding: 108 108 39
Width: 292
GlyphClass: 1
Flags: HMW
HStem: 0 22<30 30 273 273> 770 24<44 44> 809 20G
VStem: 114 61<328.5 364.5>
LayerCount: 2
Fore
SplineSet
175 380 m 0
 175 277 178 155 179 102 c 0
 180 60 204 29 273 22 c 0
 287.241318655 20.5267601391 294.006692164 14.7126489028 294.006692164 9.41323915011 c 0
 294.006692164 4.41024420709 287.976975502 -0.134017140754 276.515424288 -0.134017140754 c 0
 275.395308459 -0.134017140754 274.223314346 -0.09061587747 273 0 c 0
 235 3 189 7 147 7 c 0
 107 7 71 0 30 0 c 0
 15.2585343873 0 7.49375346789 4.90951885828 7.49375346789 10.1313285896 c 0
 7.49375346789 15.1820715465 14.7581184136 20.5249792013 30 22 c 0
 87 28 108 50 111 103 c 0
 114 155 114 281 114 335 c 0
 114 394 111 693 107 722 c 0
 103 753 81 767 44 770 c 0
 31.4376909373 771.046859089 24.0809731432 776.203395494 24.0809731432 781.597581472 c 0
 24.0809731432 786.508862652 30.1794567841 791.617147721 44 794 c 0
 91 801 132 812 153 826 c 0
 156.668949879 828.445966586 160.524860774 829.583206054 164.081851012 829.583206054 c 0
 171.763266086 829.583206054 178.050648174 824.279627036 178.050648174 815.399533391 c 0
 178.050648174 811.045431186 175 942.792472484 175 380 c 0
EndSplineSet
Validated: 41
EndChar

StartChar: m
Encoding: 109 109 40
Width: 854
GlyphClass: 1
Flags: HMW
HStem: -2 18<552.5 605.5> 0 20<268.5 330> 470 24<57 57> 470 60<318 345 598 632.5>
VStem: 121 51 121 63 404 63 684 62
LayerCount: 2
Fore
SplineSet
577 16 m 0
 649 16 677 38 681 104 c 0
 684 155 684 201 684 255 c 2
 682 368 l 2
 679 438 660 470 605 470 c 0
 529 470 465 385 466 274 c 2
 467 102 l 2
 467 38 508 16 577 16 c 0
296 20 m 0
 368 20 397 40 401 103 c 0
 404 155 404 201 404 255 c 2
 402 368 l 2
 399 438 371 470 319 470 c 0
 249 470 182 376 183 260 c 2
 184 102 l 2
 184 39 224 20 296 20 c 0
583 -2 m 0
 522 -2 478 7 437 7 c 0
 396 7 362 0 298 0 c 0
 239 0 194 7 154 7 c 0
 114 7 78 0 37 0 c 0
 21.8770739522 0 14.1234633212 4.82817216969 14.1234633212 10.0010723452 c 0
 14.1234633212 15.0898771317 21.6270235828 20.5122926048 37 22 c 0
 93 28 115 50 118 103 c 0
 121 155 121 201 121 255 c 2
 121 257 l 2
 121 311 118 392 114 422 c 0
 111 450 90 468 57 470 c 0
 43.8773912182 471.009431445 37.1232314468 475.839932296 37.1232314468 481.020105703 c 0
 37.1232314468 486.103479036 43.6273245041 491.523578612 57 494 c 0
 103 502 139 513 159 526 c 0
 162.94123994 528.627493293 166.990350521 529.852668257 170.615901646 529.852668257 c 0
 177.627074743 529.852668257 183.054275134 525.27091787 183.054275134 517.38849299 c 0
 183.054275134 509.792600797 172 431.661920069 172 399 c 0
 172 392.880143655 176.161404631 389.621252995 181.035530758 389.621252995 c 0
 185.718739025 389.621252995 191.059928172 392.629844373 194 399 c 0
 238 491 288 530 348 530 c 0
 415 530 452 491 458 412 c 0
 459 400 472 398 477 410 c 0
 514 495 567 530 629 530 c 0
 710 530 746 476 746 374 c 2
 747 103 l 2
 747 50 779 28 841 22 c 0
 855 20.5 862 14.5 862 9.125 c 0
 862 4.2370603414 856.211143624 -0.134017140754 844.633430871 -0.134017140754 c 0
 843.479765908 -0.134017140754 842.268622285 -0.09061587747 841 0 c 0
 803 3 757 7 717 7 c 0
 682 7 628 -2 583 -2 c 0
EndSplineSet
Validated: 33
EndChar

StartChar: n
Encoding: 110 110 41
Width: 594
GlyphClass: 1
Flags: HMW
HStem: 0 20<268.5 324.5> 0 22<37 37 579 579> 470 24<57 57> 470 60
VStem: 118 56 118 65 118 66 422 64
LayerCount: 2
Fore
SplineSet
296 20 m 0
 382 20 417 52 421 103 c 0
 423.143593539 135.153903092 424.138438763 191.144333732 424.138438763 245.731184876 c 0
 424.138438763 293.00478468 423.392304845 339.225699861 422 368 c 0
 419.083333333 436.055555556 392.536265432 470.083333333 341.439836248 470.083333333 c 0
 339.979938272 470.083333333 338.5 470.055555556 337 470 c 0
 248 468 182 376 183 260 c 2
 184 113 l 2
 184 39 213 20 296 20 c 0
37 0 m 0
 21.8770739522 0 14.1234633212 4.82817216969 14.1234633212 10.0010723452 c 0
 14.1234633212 15.0898771317 21.6270235828 20.5122926048 37 22 c 0
 94 28 115 49 118 103 c 0
 119.540659229 129.576371692 120.339558814 174.400030609 120.339558814 222.786011659 c 0
 120.339558814 300.0241275 118.30384635 386.339558814 114 422 c 0
 111 450 90 468 57 470 c 0
 43.8773912182 471.009431445 37.1232314468 475.839932296 37.1232314468 481.020105703 c 0
 37.1232314468 486.103479036 43.6273245041 491.523578612 57 494 c 0
 103 502 139 513 159 526 c 0
 162.94123994 528.627493293 167.098221162 529.852668257 170.833227548 529.852668257 c 0
 177.732625758 529.852668257 183.192144039 525.672075736 183.192144039 518.427456903 c 0
 183.192144039 516.471792591 174 444.300595386 174 398 c 0
 174 390.730369778 178.314083557 387.235562667 183.302042646 387.235562667 c 0
 187.919995428 387.235562667 193.11555581 390.231111619 196 396 c 0
 236 483 290 530 361 530 c 0
 442 530 486 476 486 374 c 2
 487 102 l 2
 487 55 517 28 579 22 c 0
 593 20.5 600 14.5 600 9.125 c 0
 600 4.2370603414 594.211143624 -0.134017140754 582.633430871 -0.134017140754 c 0
 581.479765908 -0.134017140754 580.268622285 -0.09061587747 579 0 c 0
 546.248350315 2.58565655411 510.525314044 7.39985304683 474.391886255 7.39985304683 c 0
 468.601616485 7.39985304683 462.800808242 7.27622896393 457 7 c 0
 404 5 351 0 298 0 c 0
 239 0 194 7 154 7 c 0
 114 7 78 0 37 0 c 0
EndSplineSet
Validated: 33
EndChar

StartChar: o
Encoding: 111 111 42
Width: 529
GlyphClass: 1
Flags: HMW
HStem: -16 41<235 320> 493 37<213.5 306>
VStem: 42 71<211 336.5> 415 73<185 303>
AnchorPoint: "top" 268 665 basechar 0
LayerCount: 2
Fore
SplineSet
283 25 m 0
 366 25 415 100 415 230 c 0
 415 376 359 493 253 493 c 0
 155 493 113 403 113 283 c 0
 113 139 187 25 283 25 c 0
254 -16 m 0
 152 -16 42 70 42 256 c 0
 42 417 150 530 277 530 c 0
 409 530 488 403 488 264 c 0
 488 106 386 -16 254 -16 c 0
EndSplineSet
Validated: 1
EndChar

StartChar: p
Encoding: 112 112 43
Width: 565
GlyphClass: 1
Flags: HMW
HStem: -250 22<14 14 257 257> -15 31<276 341.5 267.5 364.5> 473 24<36 36> 475 55<295.5 356.5>
VStem: 100 60 100 62.5 100 63 451 71<187.5 317.5>
LayerCount: 2
Fore
SplineSet
303 16 m 0
 380 16 451 101 451 250 c 0
 451 385 400 475 313 475 c 0
 219 475 166 385 162 259 c 0
 161.585786438 246.159379566 161.343145751 233.490332008 161.343145751 220.850721701 c 0
 161.343145751 202.975613382 161.828427125 185.159379566 163 167 c 0
 169 74 232 16 303 16 c 0
14 -250 m 0
 0.537477421448 -250 -7.02671777261 -244.905989986 -7.02671777261 -239.57675107 c 0
 -7.02671777261 -234.613698105 -0.466320101671 -229.44663201 14 -228 c 0
 73 -223 94 -199 97 -149 c 0
 100 -95 100 30 100 84 c 2
 100 256 l 2
 100 310 97 394 93 425 c 0
 89 456 67 470 36 473 c 0
 23.4376909373 474.046859089 16.0809731432 479.203395494 16.0809731432 484.597581472 c 0
 16.0809731432 489.508862652 22.1794567841 494.617147721 36 497 c 0
 77 504 117 515 138 529 c 0
 141.94123994 531.627493293 145.990350521 532.852668257 149.615901646 532.852668257 c 0
 156.627074743 532.852668257 162.054275134 528.27091787 162.054275134 520.38849299 c 0
 162.054275134 519.264420332 160 510.557132311 160 408 c 0
 160 397 172 394 177 408 c 0
 202 475 256 530 335 530 c 0
 449 530 522 435 522 280 c 0
 522 95 424 -15 305 -15 c 0
 247 -15 213 11 193 29 c 0
 184.934654213 36.2972176166 178.491865862 39.4642890325 173.61498349 39.4642890325 c 0
 165.793770513 39.4642890325 162 31.3187182983 162 19 c 2
 163 -147 l 2
 163 -192 186 -223 258 -228 c 0
 271.342823911 -228.953058851 277.419078438 -234.447723567 277.419078438 -239.722734715 c 0
 277.419078438 -245.037026143 271.251993533 -250.12838053 260.134928061 -250.12838053 c 0
 259.130092632 -250.12838053 258.084817026 -250.086785362 257 -250 c 0
 218 -247 172 -243 130 -243 c 0
 82 -243 54 -250 14 -250 c 0
EndSplineSet
Validated: 1
EndChar

StartChar: q
Encoding: 113 113 44
Width: 554
GlyphClass: 1
Flags: HMW
HStem: -260 22<301 301 554 554> -15 55<213.5 272> 500 30<225.5 289 203 299.5> 505 20G
VStem: 43 73<200.5 331.5> 405.5 66.5 408 64<107 270.5>
LayerCount: 2
Fore
SplineSet
116 272 m 0
 116 129 170 40 257 40 c 0
 336 40 407 129 406 255 c 2
 405 345 l 2
 402 439 335 500 264 500 c 0
 187 500 116 417 116 272 c 0
301 -260 m 0
 299.776685654 -260.090615877 298.602638732 -260.134017141 297.47869631 -260.134017141 c 0
 285.873537704 -260.134017141 279.610217807 -255.506837031 279.610217807 -250.450335559 c 0
 279.610217807 -245.187967348 286.393920142 -239.460607986 301 -238 c 0
 369 -231 406 -198 407 -146 c 0
 407.552786405 -121.124611797 407.723606798 -97.5479080332 407.723606798 -74.551993606 c 0
 407.723606798 -37.3438224604 407.276393202 -1.65617753955 407.276393202 35.551993606 c 0
 407.276393202 58.5479080332 407.447213595 82.1246117975 408 107 c 0
 408 118 397 121 391 107 c 0
 362 40 318 -15 226 -15 c 0
 141 -15 43 68 43 234 c 0
 43 429 150 530 256 530 c 0
 322 530 353 504 373 487 c 0
 388 474 398 461 412 461 c 0
 422 461 432 477 449 507 c 0
 455.681158051 518.930639376 463.956525848 525.167672515 470.456856598 525.167672515 c 0
 476.688841105 525.167672515 481.289317485 519.434963851 481.289317485 507.490680675 c 0
 481.289317485 505.787253268 481.195748938 503.957489378 481 502 c 0
 474 437 472 325 472 216 c 0
 472 157.142857143 471.346938776 65.306122449 471.346938776 -14.915451895 c 0
 471.346938776 -75.0816326531 471.714285714 -128.714285714 473 -157 c 0
 475 -210 496 -232 554 -238 c 0
 568.872908733 -239.487290873 576.126588755 -244.907086887 576.126588755 -249.994653351 c 0
 576.126588755 -255.169167873 568.622854892 -260 554 -260 c 0
 513 -260 477 -253 425 -253 c 0
 385 -253 339 -257 301 -260 c 0
EndSplineSet
Validated: 33
EndChar

StartChar: r
Encoding: 114 114 45
Width: 390
GlyphClass: 1
Flags: HMW
HStem: 0 22<37 37 279 279> 450 80 470 24<57 57>
VStem: 121 58 121 63<260 282>
LayerCount: 2
Fore
SplineSet
57 494 m 0
 98 501 139 512 160 526 c 0
 163.94123994 528.627493293 167.990350521 529.852668257 171.615901646 529.852668257 c 0
 178.627074743 529.852668257 184.054275134 525.27091787 184.054275134 517.38849299 c 0
 184.054275134 516.183547558 179 435.827079296 179 397 c 0
 179 390 182 388 187 388 c 0
 192 388 194 390 197 397 c 0
 245 510 305 530 342 530 c 0
 362.143663324 530 376.91800679 516.960223202 376.91800679 496.254968812 c 0
 376.91800679 493.318999492 376.620942756 490.228902329 376 487 c 0
 372 465 356 451 318 450 c 0
 238 448 184 386 184 260 c 2
 185 102 l 2
 185 60 210 29 279 22 c 0
 293.241318655 20.5267601391 300.006692164 14.7126489028 300.006692164 9.41323915011 c 0
 300.006692164 4.41024420709 293.976975502 -0.134017140754 282.515424288 -0.134017140754 c 0
 281.395308459 -0.134017140754 280.223314346 -0.09061587747 279 0 c 0
 241 3 195 7 155 7 c 0
 114 7 78 0 37 0 c 0
 22.2585343873 0 14.4937534679 4.90951885828 14.4937534679 10.1313285896 c 0
 14.4937534679 15.1820715465 21.7581184136 20.5249792013 37 22 c 0
 94 28 115 50 118 103 c 0
 121 155 121 201 121 255 c 0
 121 309 118 391 114 422 c 0
 110 453 88 468 57 470 c 0
 44.4376909373 471.046859089 37.0809731432 476.203395494 37.0809731432 481.597581472 c 0
 37.0809731432 486.508862652 43.1794567841 491.617147721 57 494 c 0
EndSplineSet
Validated: 1
EndChar

StartChar: s
Encoding: 115 115 46
Width: 402
GlyphClass: 1
Flags: HMW
HStem: -16 34<169.5 234.5 169.5 244.5> 498 32<175 225>
VStem: 55 63<364.5 439> 295 66<88.5 169> 319 24
LayerCount: 2
Fore
SplineSet
196 -16 m 0
 126 -16 97 -4 68 9 c 0
 56 14 49 23 48 39 c 2
 43 133 l 2
 41.9490590301 146.136762124 45.5921449798 152.922781945 50.4470377053 152.922781945 c 0
 54.8312799349 152.922781945 60.2037638797 147.388708361 64 136 c 0
 81 80 132 18 207 18 c 0
 262 18 295 40 295 103 c 0
 295 235 55 261 55 402 c 0
 55 476 133 530 215 530 c 0
 273 530 325 515 329 484 c 0
 329.139349245 482.97810554 343.279836331 390.085762053 343.279836331 381.85818061 c 0
 343.279836331 371.994045211 338.137790644 366.620215387 332.492201586 366.620215387 c 0
 327.116490785 366.620215387 321.284228088 371.492550797 319 382 c 0
 304 449 256 498 194 498 c 0
 156 498 118 477 118 424 c 0
 118 305 361 278 361 129 c 0
 361 48 293 -16 196 -16 c 0
EndSplineSet
Validated: 1
EndChar

StartChar: t
Encoding: 116 116 47
Width: 336
GlyphClass: 1
Flags: HMW
HStem: -15 41<206.5 223.5> 482 33<204 272> 493 22
VStem: 102 63<85 110 110 427 427 442>
LayerCount: 2
Fore
SplineSet
194 -15 m 0
 124 -15 102 20 102 85 c 2
 102 427 l 2
 102 462 94 491 37 493 c 0
 23.6472894413 493.534108422 16.2852868259 498.632565754 16.2852868259 503.876755829 c 0
 16.2852868259 508.451152871 21.886818981 513.136433689 34 515 c 0
 102 526 129 571 141 644 c 0
 143.565835097 659.395010585 149.818435654 666.889809473 155.298260769 666.889809473 c 0
 160.496879333 666.889809473 165 660.144490474 165 647 c 2
 165 553 l 2
 165 523 175 515 195 515 c 2
 300 515 l 2
 308.435926986 515 311.970192413 512.004540159 311.970192413 507.818583369 c 0
 311.970192413 498.110774803 292.961506801 482 272 482 c 0
 256.666666667 482 244.888888889 482.888888889 229.851851852 482.888888889 c 0
 222.333333333 482.888888889 214 482.666666667 204 482 c 0
 174 481 165 470 165 442 c 2
 165 110 l 2
 165 44 190 26 223 26 c 0
 249 26 269 33 302 59 c 0
 306.046619031 62.2878779627 309.965307393 63.6567958963 313.319266953 63.6567958963 c 0
 319.238682162 63.6567958963 323.399032307 59.3927744758 323.399032307 53.8885721044 c 0
 323.399032307 50.1803942954 321.510770546 45.9093344729 317 42 c 0
 282 13 253 -15 194 -15 c 0
EndSplineSet
Validated: 1
EndChar

StartChar: u
Encoding: 117 117 48
Width: 562
GlyphClass: 1
Flags: HMW
HStem: -15 60<214.5 252.5> 21 24<524 524> 470 24<340 340> 510 20G
VStem: 95 62 397 63<235 287 232 422> 403 57
AnchorPoint: "top" 272 665 basechar 0
LayerCount: 2
Fore
SplineSet
220 -15 m 0
 164 -15 95 12 95 141 c 2
 94 404 l 2
 94 453 72 466 43 469 c 0
 27.8247347504 470.569855026 18.9474951062 476.247118055 18.9474951062 482.019678361 c 0
 18.9474951062 487.278506707 26.3149753012 492.616425043 43 495 c 0
 85 501 112 508 138 524 c 0
 143.937854664 527.842141253 149.509708102 529.976276789 154.118978569 529.976276789 c 0
 161.495921733 529.976276789 166.407241943 524.509762509 166.407241943 511.829807337 c 0
 166.407241943 509.749867443 166.27509279 507.475835112 166 505 c 0
 157.952380952 425.142857143 156.419501134 370.961451247 156.419501134 328.459129684 c 0
 156.419501134 302.303854875 157 280.571428571 157 260 c 2
 159 147 l 2
 162 80 185 45 244 45 c 0
 317 45 390 117 397 235 c 0
 398 255.333333333 398.333333333 275.333333333 398.333333333 295.481481481 c 0
 398.333333333 335.777777778 397 376.666666667 397 422 c 0
 397 453 371 467 340 470 c 0
 327.437690937 471.046859089 320.080973143 476.203395494 320.080973143 481.597581472 c 0
 320.080973143 486.508862652 326.179456784 491.617147721 340 494 c 0
 381 501 421 512 442 526 c 0
 445.94123994 528.627493293 449.990350521 529.852668257 453.615901646 529.852668257 c 0
 460.627074743 529.852668257 466.054275134 525.27091787 466.054275134 517.38849299 c 0
 466.054275134 514.813896118 460 470.23468088 460 260 c 0
 460 204 463 124 467 93 c 0
 471 62 493 47 524 45 c 0
 536.562309063 43.9531409114 543.919026857 38.7966045055 543.919026857 33.4024185279 c 0
 543.919026857 28.4911373484 537.820543216 23.3828522786 524 21 c 0
 483 14 443 3 422 -11 c 0
 418.05876006 -13.6274932934 414.009649479 -14.8526682573 410.384098354 -14.8526682573 c 0
 403.372925257 -14.8526682573 397.945724866 -10.27091787 397.945724866 -2.38849299035 c 0
 397.945724866 -1.15357332092 403 80.9021403171 403 121 c 0
 403 128 401 134 396 134 c 0
 391 134 388 128 385 121 c 0
 341 18 285 -15 220 -15 c 0
EndSplineSet
Validated: 8912897
EndChar

StartChar: v
Encoding: 118 118 49
Width: 493
GlyphClass: 1
Flags: HMW
HStem: -14 21G -14 147 495 20<245.5 294>
VStem: -7 170 -7 495 372 116
LayerCount: 2
Fore
SplineSet
275 148 m 0
 317 263 354 379 369 431 c 0
 371.18089224 438.930517235 372.536312494 446.153487054 372.536312494 452.653322744 c 0
 372.536312494 478.937405163 350.371969844 493.396525862 271 495 c 0
 268.517241379 495.034482759 266.061831153 495.052318668 263.63549141 495.052318668 c 0
 204.732954322 495.052318668 162.962770477 484.540931277 162.962770477 446.506321078 c 0
 162.962770477 440.672246743 163.945541548 434.190604582 166 427 c 0
 183 366 213 271 250 151 c 0
 254.044493937 138.360956446 258.600173225 132.622915121 263.020948472 132.622915121 c 0
 267.344456818 132.622915121 271.538932195 138.111234843 275 148 c 0
234 -4 m 0
 223 18 119 369 90 446 c 0
 80 472 53 490 11 495 c 0
 -0.877538267963 496.484692283 -6.87691339814 501.643236528 -6.87691339814 506.354424993 c 0
 -6.87691339814 510.906053962 -1.2770327838 515.040116283 10.0320371412 515.040116283 c 0
 10.6698581229 515.040116283 11.3258392059 515.026966432 12 515 c 0
 38 514 77 510 120 510 c 0
 165 511 223 515 268 515 c 0
 320 515 343 512 387 512 c 0
 392.87210941 511.816496581 398.676871811 511.734013676 404.377211982 511.734013676 c 0
 429.740817106 511.734013676 453.03707522 513.367006838 471 515 c 0
 472.234765909 515.123476591 473.408545944 515.182155691 474.5192222 515.182155691 c 0
 483.164387032 515.182155691 487.986352488 511.62702948 487.986352488 507.402101293 c 0
 487.986352488 503.377999211 483.611902958 498.746257988 474 496 c 0
 433 485 419 462 398 412 c 0
 382 374 304 138 255 0 c 0
 251.8117618 -9.56471460126 248.058808998 -14.0469977912 244.191252761 -14.0469977912 c 0
 240.780388766 -14.0469977912 237.280388766 -10.5607775324 234 -4 c 0
EndSplineSet
Validated: 1
EndChar

StartChar: w
Encoding: 119 119 50
Width: 731
GlyphClass: 1
Flags: HMW
HStem: -16 21G -16 146 -15 21G 490 25 493 22<9 9> 495 17 497 18<479 479>
VStem: -9 734 346 12
LayerCount: 2
Fore
SplineSet
278 141 m 0
 305 223 330 312 342 353 c 0
 344.595178272 361.30457047 346.382162512 369.60914094 346.382162512 379.032328792 c 0
 346.382162512 387.764325025 344.847714765 397.456855705 341 409 c 0
 339 415 331 442 325 455 c 0
 314 478 282 490 229 490 c 0
 189.191500568 490 157.621131049 484.00863279 157.621131049 454.526718666 c 0
 157.621131049 449.941333871 158.384825939 444.787707052 160 439 c 0
 187 346 214 264 261 144 c 0
 269 125 273 127 278 141 c 0
477 -4 m 0
 471 11 417 175 375 305 c 0
 371 319 362 319 358 306 c 0
 328 215 288 89 260 0 c 0
 256.963430943 -10.1218968579 252.390069945 -15.3772859057 247.835441959 -15.3772859057 c 0
 243.390515711 -15.3772859057 238.963430943 -10.3720082992 236 0 c 0
 220 55 130 326 83 449 c 0
 74 472 51 488 9 493 c 0
 -2.87753826796 494.484692283 -8.87691339814 499.888159992 -8.87691339814 504.967983393 c 0
 -8.87691339814 510.15255644 -2.62756430421 515 10 515 c 0
 132 515 187 510 252 510 c 0
 345 510 400 515 480 515 c 0
 492.377439199 515 498.626838353 511.323175973 498.626838353 507.246223859 c 0
 498.626838353 503.088532183 492.127463233 498.514707296 479 497 c 0
 442.289887079 492.411235885 393.78799074 484.453390793 393.78799074 456.893550944 c 0
 393.78799074 454.423693082 394.17752823 451.796404017 395 449 c 0
 425 347 453 263 491 144 c 0
 493.959481645 134.628308124 498.135426013 130.122467141 502.327800071 130.122467141 c 0
 506.634969975 130.122467141 510.959481645 134.878444935 514 144 c 0
 551 256 586 359 604 431 c 0
 605.757057484 438.223458545 606.71371656 444.760861312 606.71371656 450.664295191 c 0
 606.71371656 474.999430846 590.457655096 488.561828875 547 495 c 0
 535.465620033 496.572869995 528.329320106 502.543820031 528.329320106 507.580527172 c 0
 528.329320106 511.672084753 533.038627402 515.147127203 543.9251344 515.147127203 c 0
 545.198171647 515.147127203 546.555677777 515.099608429 548 515 c 0
 579.575841751 513.394448725 610.865261846 512.36174076 639.722225234 512.36174076 c 0
 664.784991154 512.36174076 688.012901615 513.140735034 708 515 c 0
 709.234765909 515.123476591 710.408545944 515.182155691 711.5192222 515.182155691 c 0
 720.164387032 515.182155691 724.986352488 511.62702948 724.986352488 507.402101293 c 0
 724.986352488 503.377999211 720.611902958 498.746257988 711 496 c 0
 672 485 649 464 633 412 c 0
 621 374 544 162 498 0 c 0
 494.83281573 -10.5572809 491.10835056 -15.5417527999 487.267857315 -15.5417527999 c 0
 483.83281573 -15.5417527999 480.304951685 -11.55417528 477 -4 c 0
EndSplineSet
Validated: 1
EndChar

StartChar: x
Encoding: 120 120 51
Width: 552
GlyphClass: 1
Flags: HMW
HStem: 0 20<232 313> 0 22<27 27> 0 23<525 525> 214 110 492 23<36 36 502 502> 495 20<263 330.5>
VStem: 11 159 14 201 239 69 352 198 369 158
LayerCount: 2
Fore
SplineSet
269 341 m 2
 275.776671543 329.86689675 282.319040652 324.357051934 288.853934561 324.357051934 c 0
 295.819549587 324.357051934 302.776671543 330.617151217 310 343 c 0
 331 375 345 399 353 413 c 0
 363.884172713 432.387432644 369.562354504 448.0728273 369.562354504 460.331628641 c 0
 369.562354504 484.114302685 348.190872191 495 302 495 c 0
 245.283982826 495 215.003752996 482.310822075 215.003752996 452.70357949 c 0
 215.003752996 441.592784444 219.26810961 428.099422907 228 412 c 2
 269 341 l 2
283 20 m 0
 327.946862464 20 352.671791759 34.7965364649 352.671791759 61.6185348555 c 0
 352.671791759 72.9884769675 348.228863494 86.5193257519 339 102 c 2
 284 198 l 2
 277.56 208.58 271.7548 213.87 265.708376 213.87 c 0
 258.6104 213.87 251.18 206.58 242 192 c 2
 184 102 l 2
 174.305490956 86.5411882813 169.485217776 73.5538200993 169.485217776 62.8040571564 c 0
 169.485217776 32.5263449497 207.72540331 20 283 20 c 0
27 0 m 0
 16.5 0 11 5.25 11 10.625 c 0
 11 16 16.5 21.5 28 22 c 0
 77 25 111 49 149 103 c 0
 183 151 202 182 231 230 c 0
 236.393920142 239.709056255 239.169346579 250.872831235 239.169346579 261.608132148 c 0
 239.169346579 270.775426437 237.145471872 279.630272227 233 287 c 0
 206 329 182 370 154 413 c 0
 119 466 81 489 36 492 c 0
 20.318903608 492.950369478 13.4440281326 498.190949147 13.4440281326 503.429860247 c 0
 13.4440281326 509.215947782 21.8299879571 515 36 515 c 0
 62 515 91 508 131 508 c 0
 182 508 211 515 303 515 c 0
 358 515 397 508 426 508 c 0
 446 508 476 515 503 515 c 0
 519.250057366 515 527.255680949 510.150333069 527.255680949 504.868987898 c 0
 527.255680949 499.42517766 518.749942634 493.522722058 502 492 c 0
 463 488 426 466 388 412 c 0
 361 374 345 348 319 310 c 0
 312.470035914 299.908237321 308.054473363 290.168874899 308.054473363 279.735930452 c 0
 308.054473363 272.594139817 310.123597185 265.127338025 315 257 c 0
 348 199 378 155 413 103 c 0
 449 48 485 24 525 23 c 0
 541.5 22.5 549.75 16.75 549.75 11.125 c 0
 549.75 5.5 541.5 0 525 0 c 0
 498 0 467 7 417 7 c 0
 381 7 345 0 281 0 c 0
 175 0 150 7 111 7 c 0
 91 7 64 0 27 0 c 0
EndSplineSet
Validated: 1
EndChar

StartChar: y
Encoding: 121 121 52
Width: 491
GlyphClass: 1
Flags: HMW
HStem: -203 78<35 93 35 112.5> 495 20<265 306>
VStem: 0 163 374 117
AnchorPoint: "top" 266 651 basechar 0
LayerCount: 2
Fore
SplineSet
275 144 m 0
 315 249 352 375 370 431 c 0
 372.792848879 438.721405724 374.209226312 445.633122363 374.209226312 451.792791896 c 0
 374.209226312 483.126873943 337.557188551 495 259 495 c 0
 200.986519245 495 163.215904748 480.005284254 163.215904748 446.769973457 c 0
 163.215904748 441.621691434 164.122219859 436.035721881 166 430 c 0
 184 365 215 260 253 145 c 0
 255.620499352 137.138501945 260.163763422 132.847852653 264.614350732 132.847852653 c 0
 268.65563217 132.847852653 272.620499352 136.385597926 275 144 c 0
37 -203 m 0
 -4 -203 -40 -173 -40 -140 c 0
 -40 -126.111111111 -23.6419753086 -123.024691358 -1.55692729767 -123.024691358 c 0
 16.1111111111 -123.024691358 37.4444444444 -125 57 -125 c 0
 129 -125 166 -98 213 11 c 0
 216.196092511 18.0314035236 217.451333627 25.4714073407 217.451333627 33.0588265838 c 0
 217.451333627 49.2110807624 211.762735242 66.0314035236 207 81 c 0
 173 189 114 375 89 449 c 0
 81 472 60 488 18 493 c 0
 6.12246173204 494.484692283 0.123086601863 499.888159992 0.123086601863 504.725559408 c 0
 0.123086601863 509.17589575 5.20079541946 513.147127203 15.4505948536 513.147127203 c 0
 16.5718007659 513.147127203 17.7548946356 513.099608429 19 513 c 0
 39.4545454545 511.363636364 61.173553719 510.768595041 83.5484598047 510.768595041 c 0
 143.214876033 510.768595041 207.545454545 515 265 515 c 0
 331 515 366.333333333 511.444444444 406.259259259 511.444444444 c 0
 426.222222222 511.444444444 447.333333333 512.333333333 474 515 c 0
 475.296504204 515.123476591 476.520587683 515.182155691 477.671544469 515.182155691 c 0
 486.408949548 515.182155691 490.932079902 511.800492512 490.932079902 507.713914923 c 0
 490.932079902 503.619506465 486.39159812 498.817479436 477 496 c 0
 436 484 416 461 399 412 c 0
 295 113 188 -203 37 -203 c 0
EndSplineSet
Validated: 524289
EndChar

StartChar: z
Encoding: 122 122 53
Width: 457
GlyphClass: 1
Flags: HMW
HStem: 0 21<173.5 242.5 173.5 345> 494 21
VStem: 35 115 292 99
LayerCount: 2
Fore
SplineSet
51 0 m 2
 39.6559488381 0 34.9875615708 3.69976553199 34.9875615708 10.4378077074 c 0
 34.9875615708 27.4586223256 64.7768486038 63.8668805801 92 109 c 2
 274 412 l 2
 284.66597795 430.021824812 291.814904501 446.690937548 291.814904501 460.266028203 c 0
 291.814904501 481.072620743 275.020783311 494.61079593 228.355617445 494.61079593 c 0
 222.68585209 494.61079593 216.57513104 494.41094569 210 494 c 0
 163 491 100 433 76 381 c 0
 69.5142259969 367.101912851 63.2430706899 360.500861366 58.9762076835 360.500861366 c 0
 55.6159122233 360.500861366 53.4986953623 364.594887886 53.4986953623 372.442998268 c 0
 53.4986953623 376.140548256 53.9686579069 380.671399185 55 386 c 0
 63 425 90 497 107 531 c 0
 114.752166704 545.987522294 121.168864772 551.893857866 126.526168218 551.893857866 c 0
 131.53494109 551.893857866 135.617677795 546.731022183 139 539 c 0
 149 515 196 515 247 515 c 2
 373 515 l 2
 386.013530908 515 391.194532431 509.601905424 391.194532431 500.561923038 c 0
 391.194532431 481.815496185 368.914513546 447.407748092 348 413 c 0
 292 320 229 212 165 102 c 0
 155.265000857 85.0538903811 150.210012001 69.797784477 150.210012001 57.2160010311 c 0
 150.210012001 34.9022340966 166.109442762 21 200 21 c 0
 285 21 365 39 408 142 c 0
 412.894226969 153.568172836 418.382341318 158.603584502 422.614676009 158.603584502 c 0
 426.758629471 158.603584502 429.698703004 153.776279806 429.698703004 145.527160475 c 0
 429.698703004 143.265637143 429.477726974 140.746930102 429 138 c 0
 421 92 406 52 392 24 c 0
 381 2 364 0 345 0 c 2
 51 0 l 2
EndSplineSet
Validated: 1
EndChar

StartChar: zero
Encoding: 48 48 54
Width: 504
GlyphClass: 1
Flags: HMW
HStem: -16 32<214 290 214 305> 733 32<214 290>
VStem: 52 82<259 486.5 259 491> 370 82<259 486.5>
LayerCount: 2
Fore
SplineSet
252 16 m 0
 328 16 370 147 370 371 c 0
 370 602 328 733 252 733 c 0
 176 733 134 602 134 371 c 0
 134 147 176 16 252 16 c 0
252 -16 m 0
 146 -16 52 138 52 371 c 0
 52 611 146 765 252 765 c 0
 358 765 452 611 452 371 c 0
 452 138 358 -16 252 -16 c 0
EndSplineSet
Validated: 1
EndChar

StartChar: one
Encoding: 49 49 55
Width: 349
GlyphClass: 1
Flags: HMW
HStem: 0 22<72 72 300 300> 682 82
VStem: 156 66<284 382.5 284 393.5>
LayerCount: 2
Fore
SplineSet
72 0 m 0
 57.2585343873 0 49.4937534679 4.90951885828 49.4937534679 10.1313285896 c 0
 49.4937534679 15.1820715465 56.7581184136 20.5249792013 72 22 c 0
 129 28 150 50 153 103 c 0
 155 141 156 221 156 342 c 0
 156 445 155 629 153 655 c 0
 151.876751457 674.844057588 144.725441424 682.351617242 133.488142904 682.351617242 c 0
 114.712586497 682.351617242 84.5303585925 661.393098392 52 642 c 0
 46.8108485317 638.849443751 42.2742717652 637.519227461 38.5048440643 637.519227461 c 0
 30.5103498109 637.519227461 25.966585038 643.502701568 25.966585038 650.793887698 c 0
 25.966585038 658.614901871 31.1947058618 667.940588226 43 673 c 0
 97 696 139 731 177 750 c 0
 195.344340957 758.958864188 207.136743338 764.641759089 214.551204474 764.641759089 c 0
 223.528630514 764.641759089 226.087839286 756.310433444 226.087839286 735.375308464 c 0
 226.087839286 733.071413057 226.056845109 730.614875005 226 728 c 0
 224 645 222 423 222 342 c 0
 222 226 224 149 226 102 c 0
 228 60 241 29 300 22 c 0
 314.241318655 20.5267601391 321.006692164 14.7126489028 321.006692164 9.41323915011 c 0
 321.006692164 4.41024420709 314.976975502 -0.134017140754 303.515424288 -0.134017140754 c 0
 302.395308459 -0.134017140754 301.223314346 -0.09061587747 300 0 c 0
 272 3 236 7 188 7 c 0
 146 7 113 0 72 0 c 0
EndSplineSet
Validated: 1
EndChar

StartChar: two
Encoding: 50 50 56
Width: 474
GlyphClass: 1
Flags: HMW
HStem: 0 62<137 165 165 229> 705 60<197.5 242.5>
VStem: 32 80 320 84<514.5 618>
LayerCount: 2
Fore
SplineSet
55 0 m 2
 39.3284565611 0 32.0793162003 4.71654572375 32.0793162003 12.9763744539 c 0
 32.0793162003 18.9471399587 35.8672680912 26.769405765 43 36 c 0
 169 200 320 427 320 577 c 0
 320 659 279 705 206 705 c 0
 156 705 117 689 65 606 c 0
 60.5555555556 598.888888889 54.1358024691 595.333333333 49.1646090535 595.333333333 c 0
 44.919226046 595.333333333 41.7302927359 597.926437136 41.7302927359 603.112644742 c 0
 41.7302927359 605.517519335 42.4159869895 608.479971088 44 612 c 0
 91 716 159 765 236 765 c 0
 334 765 404 697 404 589 c 0
 404 440 220 206 130 101 c 0
 116.779621084 85.7765333699 111.583962953 76.4913601198 111.583962953 70.8297926254 c 0
 111.583962953 62.3592593299 123.214203487 62 137 62 c 2
 165 62 l 2
 293 62 363 63 410 136 c 0
 419.759496567 150.85140782 426.998258115 157.780505577 431.028676124 157.780505577 c 0
 433.409531087 157.780505577 434.67082814 155.36258302 434.67082814 150.73147222 c 0
 434.67082814 144.726556658 432.550217934 135.000622667 428 122 c 0
 402 49 366 0 309 0 c 2
 55 0 l 2
EndSplineSet
Validated: 1
EndChar

StartChar: three
Encoding: 51 51 57
Width: 460
GlyphClass: 1
Flags: HMW
HStem: -15 38<143 211> 707 58<187 214>
VStem: 277 81<606.5 638> 336 82<202.5 291>
LayerCount: 2
Fore
SplineSet
132 -15 m 0
 68.2840465584 -15 43.2022856965 24.3303041578 43.2022856965 56.5841008333 c 0
 43.2022856965 79.0012280441 55.3182015296 98 75 98 c 0
 125 98 107 23 179 23 c 0
 262 23 336 132 336 234 c 0
 336 324.28961388 286.444372453 383.842192953 205.715447322 383.842192953 c 0
 184.515733384 383.842192953 161.166287022 379.735405413 136 371 c 0
 131.127512806 369.305221846 126.88333533 368.552908267 123.419588368 368.552908267 c 0
 116.921271827 368.552908267 113.169860358 371.200849302 113.169860358 375.241098373 c 0
 113.169860358 379.212849451 116.795147978 384.530098652 125 390 c 0
 244 469 277 539 277 611 c 0
 277 665 240 707 188 707 c 0
 147 707 95 685 64 606 c 0
 60.9621320756 599.056301887 56.0408679214 595.502716988 51.9334903495 595.502716988 c 0
 47.9549863672 595.502716988 44.7400969937 598.83680481 44.7400969937 605.653542561 c 0
 44.7400969937 608.015511177 45.1260737088 610.795603599 46 614 c 0
 76 717 153 765 221 765 c 0
 302 765 358 711 358 639 c 0
 358 574 305 521 250 470 c 0
 243.873882514 464.256764856 241.119539463 459.832919709 241.119539463 456.335553678 c 0
 241.119539463 450.698609662 248.274764515 447.468470628 260 445 c 0
 358 422 418 354 418 262 c 0
 418 143 290 -15 132 -15 c 0
EndSplineSet
Validated: 1
EndChar

StartChar: four
Encoding: 52 52 58
Width: 476
GlyphClass: 1
Flags: HMW
HStem: 0 22<197 197 423 423> 211 46<44.5 249 92 249 92 249 377 378 378 408> 501 20G
VStem: 30 50 280 67<178 178> 281 64<289 342 278 342>
LayerCount: 2
Fore
SplineSet
197 0 m 0
 182.258534387 0 174.493753468 4.90951885828 174.493753468 10.1313285896 c 0
 174.493753468 15.1820715465 181.758118414 20.5249792013 197 22 c 0
 254 28 275 50 278 103 c 0
 279 121 278 141 280 178 c 0
 280.098382455 180.262796458 280.15804848 182.399764519 280.15804848 184.413760948 c 0
 280.15804848 202.87085802 275.146908814 211 249 211 c 2
 59 211 l 2
 39.2563240651 211 30.1734008136 223.514796628 30.1734008136 238.761847408 c 0
 30.1734008136 245.910042279 32.1697969386 253.658777466 36 261 c 0
 60 307 330 745 346 769 c 0
 349.250310178 773.875465267 355.247394582 776.004156308 361.415906609 776.004156308 c 0
 371.382028031 776.004156308 381.795628104 770.447620097 381.795628104 761.941206569 c 0
 381.795628104 759.51410671 380.947848036 756.846854822 379 754 c 0
 357 722 102 314 89 293 c 0
 82.8371112253 283.044564287 79.5958530698 274.437573475 79.5958530698 268.137910174 c 0
 79.5958530698 261.149061234 83.5850938766 257 92 257 c 2
 249 257 l 2
 277 257 281 267 281 289 c 2
 281 342 l 1
 280 489 l 2
 280 498 285 511 312 518 c 0
 318.29666166 519.64260739 323.693936975 520.535726158 328.212344536 520.535726158 c 0
 340.198456278 520.535726158 346 514.250874137 346 499 c 2
 345 342 l 1
 345 289 l 2
 345 267 354 257 377 257 c 2
 416 257 l 2
 430.814991328 257 437.169149421 255.009215709 437.169149421 247.867634413 c 0
 437.169149421 244.886144835 436.061669557 241.006911782 434 236 c 0
 427 218 423 211 408 211 c 2
 378 211 l 2
 355.305708067 211 346.917829644 202.058491557 346.917829644 181.638959634 c 0
 346.917829644 147.807747838 346.917829644 147.807747838 349 102 c 0
 351 60 364 28 423 22 c 0
 437.241318655 20.5267601391 444.006692164 14.4714893819 444.006692164 9.0450464065 c 0
 444.006692164 4.12374818528 438.44226249 -0.280347554142 427.843434041 -0.280347554142 c 0
 426.330962124 -0.280347554142 424.715970695 -0.190663410602 423 0 c 0
 395 3 359 7 314 7 c 0
 274 7 238 0 197 0 c 0
EndSplineSet
Validated: 1
EndChar

StartChar: five
Encoding: 53 53 59
Width: 428
GlyphClass: 1
Flags: HMW
HStem: -16 49<149.5 198.5>
VStem: 314 66<220.5 309>
LayerCount: 2
Fore
SplineSet
138 -16 m 0
 64.2422120201 -16 36.8337787935 25.7498004649 36.8337787935 59.5820960576 c 0
 36.8337787935 82.6279250453 49.5514017987 102 69 102 c 0
 112 102 124 33 175 33 c 0
 250 33 314 119 314 243 c 0
 314 375 250 462 87 484 c 0
 66.7476204188 486.43028555 55.0265455146 490.829333717 55.0265455146 507.829711927 c 0
 55.0265455146 511.814988935 55.6706662827 516.492760314 57 522 c 0
 74 590 94 657 111 725 c 0
 115 739 124 747 138 750 c 2
 343 793 l 2
 347.707885189 793.905362536 351.792812574 794.450065291 355.219160933 794.450065291 c 0
 363.580389017 794.450065291 368.019821052 791.206395165 368.019821052 782.04460232 c 0
 368.019821052 774.226506076 364.787097995 762.098927986 358 744 c 0
 350 722 341 712 319 708 c 2
 157 679 l 2
 135 675 121 665 114 643 c 0
 109 627 104 610 98 583 c 0
 97.2857142857 579.857142857 96.9387755102 576.897959184 96.9387755102 574.119533528 c 0
 96.9387755102 557.448979592 109.428571429 547.285714286 130 543 c 0
 324 506 380 401 380 289 c 0
 380 152 259 -16 138 -16 c 0
EndSplineSet
Validated: 1
EndChar

StartChar: six
Encoding: 54 54 60
Width: 462
GlyphClass: 1
Flags: HMW
HStem: -15 30<189 268 189 281.5> 382 39<235 268>
VStem: 46 70<162.5 252 162.5 328> 350 71<150 244.5>
LayerCount: 2
Fore
SplineSet
240 15 m 0
 296 15 350 65 350 183 c 0
 350 306 303 382 233 382 c 0
 153 382 116 305 116 199 c 0
 116 126 138 15 240 15 c 0
223 -15 m 0
 117 -15 46 78 46 218 c 0
 46 438 148 640 332 755 c 0
 346.04653681 763.644022652 356.850055929 767.358658414 363.335969817 767.358658414 c 0
 367.821509806 767.358658414 370.242002323 765.582002425 370.242002323 762.430497887 c 0
 370.242002323 757.486646484 364.285398878 749.159422671 351 739 c 0
 259 669 176 552 140 407 c 0
 139.063269672 403.065732621 138.61791902 399.552647822 138.61791902 396.506774628 c 0
 138.61791902 387.803401072 142.254168758 382.91477005 148.452779744 382.91477005 c 0
 151.663952478 382.91477005 155.562793393 384.22674587 160 387 c 0
 184 401 213 421 257 421 c 0
 370 421 421 323 421 218 c 0
 421 82 340 -15 223 -15 c 0
EndSplineSet
Validated: 1
EndChar

StartChar: seven
Encoding: 55 55 61
Width: 431
GlyphClass: 1
Flags: HMW
HStem: -15 21G<97 119> 672 78<126.5 158 158 317>
VStem: 24 396
LayerCount: 2
Fore
SplineSet
157 30 m 0
 148 -2 128 -15 110 -15 c 0
 90.1176470588 -15 72.5743944637 0.204152249135 72.5743944637 23.0103806228 c 0
 72.5743944637 30.0276816609 74.2352941176 37.7647058824 78 46 c 0
 151 201 203 292 257 420 c 0
 292 504 319 581 338 644 c 0
 338.983877257 647.345182673 339.464386996 650.458041876 339.464386996 653.300481313 c 0
 339.464386996 664.903133569 331.458041876 672 317 672 c 2
 158 672 l 2
 95 672 73 646 47 606 c 0
 43.7526044493 600.896949849 37.2769707774 597.946058445 31.9661285928 597.946058445 c 0
 27.3675568151 597.946058445 23.6422928288 600.158502889 23.6422928288 605.101929267 c 0
 23.6422928288 606.755800789 24.0592624847 608.715351749 25 611 c 2
 75 732 l 2
 81 747 88 750 109 750 c 2
 402 750 l 2
 412.46565654 750 419.578354912 743.294083665 419.578354912 732.806493375 c 0
 419.578354912 729.264742697 418.76717173 725.291702773 417 721 c 0
 371 615 330 521 288 414 c 0
 246 306 203 191 157 30 c 0
EndSplineSet
Validated: 1
EndChar

StartChar: eight
Encoding: 56 56 62
Width: 531
GlyphClass: 1
Flags: HMW
HStem: -15 26<248.5 312.5 248.5 330.5> 362 56 742 23<241.5 314.5>
VStem: 68 69<114.5 201.5> 74 78<560.5 635.5> 210 113 387 75 405 76<128 213>
LayerCount: 2
Fore
SplineSet
269 424 m 0
 275.199337741 420.383719651 280.864900643 418.36876382 286.410320019 418.36876382 c 0
 291.599116988 418.36876382 296.682726263 420.132891827 302 424 c 0
 349 458 383 517 387 591 c 0
 387.213595963 595.218520266 387.321688194 599.417080367 387.321688194 603.585783098 c 0
 387.321688194 677.484150103 353.354287808 742 271 742 c 0
 212 742 152 701 152 603 c 0
 152 518 206 461 269 424 c 0
277 11 m 0
 348 11 405 60 405 157 c 0
 405 269 332 311 261 356 c 0
 255.317273737 359.616280349 249.901434894 361.63123618 244.476729262 361.63123618 c 0
 239.400883012 361.63123618 234.317273737 359.867108173 229 356 c 0
 174 316 137 243 137 170 c 0
 137 59 220 11 277 11 c 0
271 -15 m 0
 136 -15 68 68 68 155 c 0
 68 248 124 309 198 360 c 0
 205.871068287 365.411359447 209.628022622 371.3067323 209.628022622 377.090852533 c 0
 209.628022622 383.064465857 205.620873481 388.919417679 198 394 c 0
 135 436 74 492 74 580 c 0
 74 691 157 765 287 765 c 0
 397 765 462 700 462 608 c 0
 462 524 417 482 334 421 c 0
 326.620999228 415.588732767 322.871975282 409.451470168 322.871975282 403.421542039 c 0
 322.871975282 397.193859045 326.870934157 391.080666152 335 386 c 0
 402 344 481 287 481 179 c 0
 481 77 390 -15 271 -15 c 0
EndSplineSet
Validated: 1
EndChar

StartChar: nine
Encoding: 57 57 63
Width: 462
GlyphClass: 1
Flags: HMW
HStem: -15 21G 331 39<194 227> 737 30<194 273>
VStem: 41 71<507.5 602> 346 70<500 589.5>
LayerCount: 2
Fore
SplineSet
222 737 m 0
 166 737 112 687 112 569 c 0
 112 446 159 370 229 370 c 0
 309 370 346 447 346 553 c 0
 346 626 324 737 222 737 c 0
239 767 m 0
 345 767 416 674 416 534 c 0
 416 314 314 112 130 -3 c 0
 115.95346319 -11.6440226524 105.149944071 -15.3586584135 98.6640301826 -15.3586584135 c 0
 94.1784901938 -15.3586584135 91.7579976774 -13.5820024245 91.7579976774 -10.4304978875 c 0
 91.7579976774 -5.48664648417 97.7146011223 2.84057732882 111 13 c 0
 203 83 286 200 322 345 c 0
 322.936730328 348.934267379 323.38208098 352.447352178 323.38208098 355.493225372 c 0
 323.38208098 364.196598928 319.745831242 369.08522995 313.547220256 369.08522995 c 0
 310.336047522 369.08522995 306.437206607 367.77325413 302 365 c 0
 278 351 249 331 205 331 c 0
 92 331 41 429 41 534 c 0
 41 670 122 767 239 767 c 0
EndSplineSet
Validated: 1
EndChar

StartChar: period
Encoding: 46 46 64
Width: 239
GlyphClass: 1
Flags: HMW
HStem: -15 21G<101.5 136.5> -15 129<119 119>
VStem: 54 130<32.5 67.5>
LayerCount: 2
Fore
SplineSet
119 -15 m 0
 84 -15 54 15 54 50 c 0
 54 85 84 113 119 114 c 0
 119.568386938 114.016239627 120.13545525 114.024303764 120.701097863 114.024303764 c 0
 154.966465844 114.024303764 184 84.4316130615 184 50 c 0
 184 15 154 -15 119 -15 c 0
EndSplineSet
Validated: 1
EndChar

StartChar: comma
Encoding: 44 44 65
Width: 242
GlyphClass: 1
Flags: HMW
HStem: -168 283
VStem: 56 131<20 67> 97 90<-54.5 67.5>
LayerCount: 2
Fore
SplineSet
37 -147 m 0
 23.5786807089 -162.463693966 11.9450589801 -168.307872477 3.16715776444 -168.307872477 c 0
 -7.77359066295 -168.307872477 -14.277962685 -159.228911305 -14.277962685 -148.381113001 c 0
 -14.277962685 -138.10260638 -8.43837465424 -126.236047891 5 -119 c 0
 56 -91 97 -70 97 -39 c 0
 97 4 56 -9 56 49 c 0
 56 85 85 114 120 115 c 0
 120.707998378 115.015733297 121.410303413 115.023545422 122.106918999 115.023545422 c 0
 165.686819274 115.023545422 187 84.4493345951 187 50 c 0
 187 -27 103 -70 37 -147 c 0
EndSplineSet
Validated: 1
EndChar

StartChar: exclam
Encoding: 33 33 66
Width: 274
GlyphClass: 1
Flags: HMW
HStem: -15 21G<119.5 154.5> -15 129<137 137> 745 20G<123.5 143>
VStem: 72 130<32.5 67.5> 119 29<195.5 307 195 308>
LayerCount: 2
Fore
SplineSet
137 -15 m 0
 102 -15 72 15 72 50 c 0
 72 85 102 113 137 114 c 0
 137.568386938 114.016239627 138.13545525 114.024303764 138.701097863 114.024303764 c 0
 172.966465844 114.024303764 202 84.4316130615 202 50 c 0
 202 15 172 -15 137 -15 c 0
148 210 m 0
 148 195.119085136 140.864658679 187.373511592 133.672669819 187.373511592 c 0
 126.365572583 187.373511592 119 195.369006351 119 212 c 0
 119 404 96 649 91 700 c 0
 90.5893497574 704.024372377 90.3945505507 707.826148374 90.3945505507 711.414745913 c 0
 90.3945505507 751.520236035 114.724731019 765 134 765 c 0
 151.099222774 765 177.222625162 750.561312618 177.222625162 709.682324488 c 0
 177.222625162 707.528842894 177.150129538 705.301986244 177 703 c 0
 173 649 148 404 148 210 c 0
EndSplineSet
Validated: 1
EndChar

StartChar: question
Encoding: 63 63 67
Width: 405
GlyphClass: 1
Flags: HMW
HStem: -15 21G<130.5 165.5> -15 129<148 148> 726 40
VStem: 83 130<32.5 67.5> 288 79<543.5 658.5>
LayerCount: 2
Fore
SplineSet
148 -15 m 0
 113 -15 83 15 83 50 c 0
 83 85 113 113 148 114 c 0
 148.568386938 114.016239627 149.13545525 114.024303764 149.701097863 114.024303764 c 0
 183.966465844 114.024303764 213 84.4316130615 213 50 c 0
 213 15 183 -15 148 -15 c 0
140 203 m 0
 140 354 288 467 288 620 c 0
 288 695.763191272 247.338409787 726.02412683 205.071112263 726.02412683 c 0
 204.381112785 726.02412683 203.690685393 726.016062451 203 726 c 0
 166 725 130 704 121 642 c 0
 112 580 89 564 60 564 c 0
 47.126315591 564 24.5417864399 571.121286144 24.5417864399 592.135469087 c 0
 24.5417864399 597.23866765 25.873684409 603.161184645 29 610 c 0
 75 709 171 766 245 766 c 0
 317 766 367 717 367 628 c 0
 367 458 180 354 169 203 c 0
 168 189 163 184 154 184 c 0
 145 184 140 188 140 203 c 0
EndSplineSet
Validated: 1
EndChar

StartChar: gravecomb
Encoding: 768 768 68
Width: 1026
VWidth: 2048
GlyphClass: 4
Flags: HW
HStem: -24 139.424
VStem: 174.819 145.014
AnchorPoint: "top" 311.143 -13.9738 mark 0
LayerCount: 2
Fore
SplineSet
309 -24 m 1024
207.359375 47.900390625 m 0
 183.264648438 67.626953125 176.65625 76.6025390625 174.819335938 85.7685546875 c 0
 173.225585938 93.7216796875 175.345703125 101.208984375 181.239257812 107.221679688 c 0
 186.640625 112.733398438 193.69921875 115.462890625 201.948242188 115.423828125 c 0
 211.124023438 115.379882812 220.432617188 111.916015625 231.450195312 104.254882812 c 0
 240.241210938 98.1416015625 248.515625 90.4716796875 259.139648438 76.1650390625 c 0
 263.80859375 69.87890625 275.270507812 53.775390625 279.387695312 47.98828125 c 0
 303.823242188 13.6474609375 313.065429688 0.84375 314.640625 -1.3212890625 c 0
 318.63671875 -6.8115234375 319.489257812 -8.6572265625 319.833007812 -10.2392578125 c 0
 320.176757812 -11.818359375 320.041992188 -13.2646484375 319.056640625 -15.6513671875 c 0
 316.899414062 -20.880859375 313.383789062 -24.021484375 309 -24 c 0
 306.471679688 -23.9873046875 303.689453125 -22.923828125 287.97265625 -12.1572265625 c 0
 263.470703125 4.62890625 228.196289062 30.841796875 207.359375 47.900390625 c 0
EndSplineSet
Validated: 524289
EndChar

StartChar: acutecomb
Encoding: 769 769 69
Width: 1026
VWidth: 2048
GlyphClass: 4
Flags: HW
HStem: 52.502 54.998<174.43 258.529>
AnchorPoint: "top" 74.9912 1.17285 mark 0
LayerCount: 2
Fore
SplineSet
97.4130859375 6.1494140625 m 1024
220.32421875 52.501953125 m 0
 194.7109375 41.0859375 151.829101562 23.9609375 122.296875 13.2373046875 c 0
 103.354492188 6.359375 100.151367188 5.837890625 97.4130859375 6.1494140625 c 0
 92.662109375 6.689453125 89.4189453125 9.7275390625 88.0224609375 14.314453125 c 0
 87.3818359375 16.4091796875 87.49609375 17.619140625 88.150390625 18.876953125 c 0
 88.806640625 20.1376953125 90.0595703125 21.5517578125 95.3701171875 25.5703125 c 0
 97.462890625 27.1552734375 109.760742188 36.5380859375 142.366210938 61.7470703125 c 0
 147.860351562 65.9951171875 163.153320312 77.8173828125 169.333984375 82.40625 c 0
 183.399414062 92.8525390625 193.73046875 98.1240234375 204.341796875 102.045898438 c 0
 214.996819647 105.983539205 223.9814616 107.839628489 232.244772974 107.839628489 c 0
 234.295886045 107.839628489 236.302555917 107.725269625 238.279296875 107.5 c 0
 247.217773438 106.481445312 254.369140625 103.331054688 259.227539062 98.09765625 c 0
 264.532226562 92.388671875 265.485351562 85.943359375 262.333984375 79.587890625 c 0
 258.704101562 72.2626953125 249.942382812 65.7021484375 220.32421875 52.501953125 c 0
EndSplineSet
Validated: 1
EndChar

StartChar: uni0302
Encoding: 770 770 70
Width: 1581
VWidth: 2048
GlyphClass: 4
Flags: HW
HStem: 544 90
VStem: 149.781 185.344<551.688 553>
AnchorPoint: "top" 231.773 552.5 mark 0
LayerCount: 2
Fore
SplineSet
355.0078125 551.5 m 2
 338.5546875 560.359375 l 2
 329.2734375 565.703125 312.5390625 575.125 288.3515625 588.625 c 0
 264.1640625 602.125 245.4609375 612.25 232.243164062 619 c 1
 220.1484375 612.8125 202.5703125 603.109375 179.5078125 589.890625 c 0
 156.4453125 576.671875 138.8671875 566.828125 126.7734375 560.359375 c 2
 110.3203125 551.5 l 2
 103.2890625 551.5 97.8046875 555.015625 93.8671875 562.046875 c 0
 93.5859375 562.609375 93.4453125 563.03125 93.4453125 563.3125 c 0
 93.4453125 565 94.7109375 567.109375 97.2421875 569.640625 c 0
 142.5234375 616.609375 176.5546875 650.359375 199.3359375 670.890625 c 0
 207.4921875 677.921875 213.2578125 682.28125 216.6328125 683.96875 c 0
 220.0078125 685.65625 226.0546875 686.5 234.7734375 686.5 c 0
 241.2421875 686.5 246.1640625 685.65625 249.5390625 683.96875 c 0
 252.9140625 682.28125 258.3984375 677.921875 265.9921875 670.890625 c 0
 286.5234375 652.328125 320.4140625 618.578125 367.6640625 569.640625 c 0
 370.1953125 567.109375 371.4609375 565 371.4609375 563.3125 c 0
 371.4609375 562.75 371.3203125 562.328125 371.0390625 562.046875 c 0
 367.1015625 555.015625 361.7578125 551.5 355.0078125 551.5 c 2
EndSplineSet
Validated: 524289
EndChar

StartChar: uni0308
Encoding: 776 776 71
Width: 1581
VWidth: 2048
GlyphClass: 4
Flags: HW
HStem: 71.4004 88.1992<213.024 276.077 378.623 442.577>
VStem: 199.101 90.8994<84.3953 146.605> 364.7 91.3496<84.3953 146.605>
AnchorPoint: "top" 331.25 50.7002 mark 0
LayerCount: 2
Fore
SplineSet
411.049804688 159.599609375 m 0
 423.349609375 159.599609375 434 155.400390625 443 147 c 0
 452 138.599609375 456.350585938 128.099609375 456.049804688 115.5 c 0
 456.350585938 102.900390625 452 92.400390625 443 84 c 0
 434 75.599609375 423.349609375 71.400390625 411.049804688 71.400390625 c 0
 398.149414062 71.400390625 387.200195312 75.599609375 378.200195312 84 c 0
 369.200195312 92.400390625 364.700195312 102.900390625 364.700195312 115.5 c 0
 364.700195312 128.099609375 369.200195312 138.599609375 378.200195312 147 c 0
 387.200195312 155.400390625 398.149414062 159.599609375 411.049804688 159.599609375 c 0
244.100585938 159.599609375 m 0
 256.700195312 159.599609375 267.5 155.400390625 276.5 147 c 0
 285.5 138.599609375 290 128.099609375 290 115.5 c 0
 290 102.900390625 285.5 92.400390625 276.5 84 c 0
 267.5 75.599609375 256.700195312 71.400390625 244.100585938 71.400390625 c 0
 232.099609375 71.400390625 221.600585938 75.599609375 212.600585938 84 c 0
 203.600585938 92.400390625 199.100585938 102.900390625 199.100585938 115.5 c 0
 199.100585938 128.099609375 203.600585938 138.599609375 212.600585938 147 c 0
 221.600585938 155.400390625 232.099609375 159.599609375 244.100585938 159.599609375 c 0
EndSplineSet
Validated: 33
EndChar

StartChar: uni0327
Encoding: 807 807 72
Width: 1576
VWidth: 2048
GlyphClass: 4
Flags: W
AnchorPoint: "bottom" 119 -3 mark 0
LayerCount: 2
Fore
SplineSet
142.997070312 -2.498046875 m 1
 142.997070312 -17.498046875 146.6640625 -26.998046875 153.997070312 -30.998046875 c 0
 172.6640625 -40.33203125 190.6640625 -53.998046875 207.997070312 -71.998046875 c 0
 225.331054688 -89.998046875 233.997070312 -109.83203125 233.997070312 -131.498046875 c 0
 233.997070312 -153.83203125 227.497070312 -173.33203125 214.497070312 -189.998046875 c 0
 201.497070312 -206.6640625 185.831054688 -218.831054688 167.497070312 -226.498046875 c 0
 149.1640625 -234.1640625 130.330078125 -237.998046875 110.997070312 -237.998046875 c 0
 89.6630859375 -237.998046875 71 -234.166015625 55 -226.499023438 c 0
 39 -218.83203125 29.3330078125 -211.666015625 26 -205 c 0
 24.3330078125 -201.666015625 26.6669921875 -195.666015625 33 -187 c 0
 39.333984375 -178.333007812 44.5 -175.833007812 48.5 -179.5 c 0
 53.5 -183.5 57.333984375 -186.333007812 60 -188 c 0
 62.6669921875 -189.333007812 68 -191.333007812 76 -194 c 0
 84.333984375 -196.666015625 93.6669921875 -198 104.000976562 -198 c 0
 125.333984375 -198 141.333984375 -192.5 152.000976562 -181.5 c 0
 162.666992188 -170.5 168.166992188 -154.833007812 168.500976562 -134.5 c 0
 168.500976562 -98.166015625 150.000976562 -73.83203125 113.000976562 -61.4990234375 c 0
 102.666992188 -58.4990234375 95.833984375 -55.33203125 92.5 -51.9990234375 c 0
 89.1669921875 -48.666015625 87.5 -43.33203125 87.5 -35.998046875 c 0
 87.5 -28.6650390625 89.5 -15.998046875 93.5 2.001953125 c 1
 93.5 2.001953125 149.002929688 -3.501953125 146 -3 c 1026
EndSplineSet
Validated: 35
EndChar

StartChar: Ccedilla
Encoding: 199 199 73
Width: 596
GlyphClass: 2
Flags: HW
HStem: -176.062 33.9814<256.846 353.52> -14.4529 34.4529<375.445 422.225> 730 35<260.086 396.833>
VStem: 42.9033 85<214.956 527.45> 366.333 55.8291<-127.407 -39.7381> 521.903 25<561.284 590.357>
LayerCount: 2
Fore
SplineSet
375.444926363 -14.4529310932 m 1
 383.614528973 -20.2660190238 392.193425201 -26.8473867849 397.280273438 -32.1298828125 c 0
 414.799804688 -50.3232421875 422.162109375 -67.1728515625 422.162109375 -87.2060546875 c 0
 422.162109375 -104.555664062 416.640625 -121.122070312 404.649414062 -136.49609375 c 0
 394.55078125 -149.442382812 381.240234375 -159.779296875 364.38671875 -166.826171875 c 0
 350.087890625 -172.805664062 334.086914062 -176.0625 316.809570312 -176.0625 c 0
 299.536132812 -176.0625 283.6796875 -172.807617188 267.727539062 -165.163085938 c 0
 256.493164062 -159.780273438 248.280273438 -153.69140625 246.086914062 -149.303710938 c 0
 244.032226562 -145.1953125 246.014648438 -140.09765625 250.743164062 -133.627929688 c 0
 256.776367188 -125.372070312 261.166015625 -123.248046875 267.283203125 -128.458007812 c 0
 268.8125 -129.760742188 272.069335938 -132.16796875 274.115234375 -133.318359375 c 0
 276.600585938 -134.716796875 281.131835938 -136.416992188 285.014648438 -137.684570312 c 0
 295.008789062 -140.947265625 302.938476562 -142.081054688 311.814453125 -142.081054688 c 0
 329.842773438 -142.081054688 343.436523438 -137.407226562 352.715820312 -127.837890625 c 0
 361.720095009 -118.552263413 366.334597492 -104.994936177 366.334597492 -88.0119547199 c 0
 366.334597492 -57.0233929652 350.610764129 -36.5266526898 318.048828125 -25.978515625 c 0
 310.584960938 -23.560546875 304.778320312 -20.87109375 301.946289062 -18.0380859375 c 0
 300.277208672 -16.3690055473 299.099971257 -14.1097135873 298.414576817 -11.2602100577 c 0
 146.450101856 12.8099532689 42.9033203125 151.993184105 42.9033203125 375 c 0
 42.9033203125 605 167.903320312 765 345.903320312 765 c 0
 401.903320312 765 452.903320312 746 490.903320312 724 c 0
 505.903320312 715 517.903320312 703 521.903320312 692 c 0
 522.31719693 690.841145469 546.966411418 610.227058638 546.966411418 571.525030625 c 0
 546.966411418 561.614139442 543.802404937 554.962860736 538.604947384 554.962860736 c 0
 534.245798452 554.962860736 528.456256972 559.641576456 521.903320312 571 c 0
 455.903320312 684 399.903320312 730 325.903320312 730 c 0
 212.903320312 730 127.903320312 595 127.903320312 393 c 0
 127.903320312 148 212.903320312 20 355.903320312 20 c 0
 424.903320312 20 491.903320312 72 529.903320312 183 c 0
 534.974042047 197.2902158 540.682256814 202.868026842 545.166799593 202.868026842 c 0
 549.77821307 202.868026842 553.095738191 196.970151565 553.095738191 188.582631352 c 0
 553.095738191 187.221741261 547.150541457 125.236105723 532.903320312 54 c 0
 529.903320312 39 524.176757812 24.4287109375 507.903320312 17 c 0
 467.837659253 -1.29084526589 435.35827984 -11.9954088869 375.444926363 -14.4529310932 c 1
EndSplineSet
Validated: 1
EndChar

StartChar: ccedilla
Encoding: 231 231 74
Width: 455
GlyphClass: 2
Flags: HW
HStem: -154.866 33.9814<140.652 237.326> 500 30<200.263 278.818>
VStem: 43 66<146.148 363.946> 250.139 55.8291<-106.211 -18.5418>
LayerCount: 2
Fore
SplineSet
189.95185324 0.134265956859 m 0
 104.959455562 19.4592992777 43.0000000315 93.9550941922 43 234.045211311 c 0
 43 419 151 530 274.972211096 530 c 0
 319 530 359 516 381.189975387 498.516989089 c 0
 397.390752928 485.752740117 403.908317845 471.28144967 403.908317845 458.111132958 c 0
 403.908317845 435.666375156 384.979531259 417 362.790143277 417 c 0
 316 417 303 500 233.329526594 500 c 0
 162 500 109 413 109 274.209071503 c 0
 109 118.987233907 175.291729314 44.8841204954 259.539776604 44.8841204954 c 0
 260.618365666 44.8841204954 261.699897859 44.89626637 262.784271756 44.9205433975 c 0
 311 46 362 71 396.538044353 116.679348983 c 0
 408.313264314 132.253026996 417.797293061 139.861992419 422.790976835 139.861992419 c 0
 425.267054148 139.861992419 426.639139185 137.991258854 426.639139185 134.293159878 c 0
 426.639139185 128.055548628 422.735581726 116.619115376 413.641982748 100.191968835 c 0
 382.488017766 43.9138385443 333.726027354 7.29235246113 271.475851433 -2.41509752142 c 1
 275.216841454 -5.40525290462 278.576356389 -8.32749028852 281.0859375 -10.93359375 c 0
 298.60546875 -29.126953125 305.967773438 -45.9765625 305.967773438 -66.009765625 c 0
 305.967773438 -83.359375 300.446289062 -99.92578125 288.455078125 -115.299804688 c 0
 278.356445312 -128.24609375 265.045898438 -138.583007812 248.192382812 -145.629882812 c 0
 233.893554688 -151.609375 217.892578125 -154.866210938 200.615234375 -154.866210938 c 0
 183.341796875 -154.866210938 167.485351562 -151.611328125 151.533203125 -143.966796875 c 0
 140.298828125 -138.583984375 132.0859375 -132.495117188 129.892578125 -128.107421875 c 0
 127.837890625 -123.999023438 129.8203125 -118.901367188 134.548828125 -112.431640625 c 0
 140.58203125 -104.17578125 144.971679688 -102.051757812 151.088867188 -107.26171875 c 0
 152.618164062 -108.564453125 155.875 -110.971679688 157.920898438 -112.122070312 c 0
 160.40625 -113.520507812 164.9375 -115.220703125 168.8203125 -116.48828125 c 0
 178.814453125 -119.750976562 186.744140625 -120.884765625 195.620117188 -120.884765625 c 0
 213.6484375 -120.884765625 227.2421875 -116.2109375 236.521484375 -106.641601562 c 0
 245.52575907 -97.3559743516 250.140261555 -83.7986471132 250.140261555 -66.8156656575 c 0
 250.140261555 -35.8271039027 234.416428191 -15.3303636273 201.854492188 -4.7822265625 c 0
 197.101530656 -3.24247348739 193.020589867 -1.59263098002 189.95185324 0.134265956859 c 0
EndSplineSet
Validated: 1
EndChar

StartChar: idieresis
Encoding: 239 239 75
Width: 301
GlyphClass: 2
Flags: HW
HStem: 0 22<3.93134 71.4695 225.732 289.289> 470 24<30.7691 84.4165> 584.801 88.1992<18.923 81.9762 184.523 248.476>
VStem: 5 90.8994<597.796 660.005> 112 62<52.8914 453.751> 170.6 91.3496<597.796 660.005>
LayerCount: 2
Fore
SplineSet
24 0 m 0
 9.25853438727 0 1.49375346789 4.90951885828 1.49375346789 10.1313285896 c 0
 1.49375346789 15.1820715465 8.75811841361 20.5249792013 24 22 c 0
 88 28 106 50 109 103 c 0
 112 155 112 201 112 255 c 0
 112 314 109 377 105 422 c 0
 102 453 79 468 48 470 c 0
 35.4376909373 471.046859089 28.0809731432 476.203395494 28.0809731432 481.597581472 c 0
 28.0809731432 486.508862652 34.1794567841 491.617147721 48 494 c 0
 89 501 132 512 153 526 c 0
 156.94123994 528.627493293 160.990350521 529.852668257 164.615901646 529.852668257 c 0
 171.627074743 529.852668257 177.054275134 525.27091787 177.054275134 517.38849299 c 0
 177.054275134 514.764430303 174 554.298723923 174 255 c 0
 174 207 177 155 178 102 c 0
 179 60 203 29 271 22 c 0
 285.241318655 20.5267601391 292.006692164 14.7126489028 292.006692164 9.41323915011 c 0
 292.006692164 4.41024420709 285.976975502 -0.134017140754 274.515424288 -0.134017140754 c 0
 273.395308459 -0.134017140754 272.223314346 -0.09061587747 271 0 c 0
 234 3 188 7 148 7 c 0
 108 7 72 0 24 0 c 0
216.94921875 673 m 0
 229.249023438 673 239.899414062 668.80078125 248.899414062 660.400390625 c 0
 257.899414062 652 262.25 641.5 261.94921875 628.900390625 c 0
 262.25 616.30078125 257.899414062 605.80078125 248.899414062 597.400390625 c 0
 239.899414062 589 229.249023438 584.80078125 216.94921875 584.80078125 c 0
 204.048828125 584.80078125 193.099609375 589 184.099609375 597.400390625 c 0
 175.099609375 605.80078125 170.599609375 616.30078125 170.599609375 628.900390625 c 0
 170.599609375 641.5 175.099609375 652 184.099609375 660.400390625 c 0
 193.099609375 668.80078125 204.048828125 673 216.94921875 673 c 0
50 673 m 0
 62.599609375 673 73.3994140625 668.80078125 82.3994140625 660.400390625 c 0
 91.3994140625 652 95.8994140625 641.5 95.8994140625 628.900390625 c 0
 95.8994140625 616.30078125 91.3994140625 605.80078125 82.3994140625 597.400390625 c 0
 73.3994140625 589 62.599609375 584.80078125 50 584.80078125 c 0
 37.9990234375 584.80078125 27.5 589 18.5 597.400390625 c 0
 9.5 605.80078125 5 616.30078125 5 628.900390625 c 0
 5 641.5 9.5 652 18.5 660.400390625 c 0
 27.5 668.80078125 37.9990234375 673 50 673 c 0
EndSplineSet
Validated: 33
EndChar

StartChar: icircumflex
Encoding: 238 238 76
Width: 301
GlyphClass: 2
Flags: HW
HStem: 0 22<3.93134 71.4695 225.732 289.289> 470 24<30.7691 84.4165>
VStem: 112 62<52.8914 453.751>
LayerCount: 2
Fore
SplineSet
24 0 m 0
 9.25853438727 0 1.49375346789 4.90951885828 1.49375346789 10.1313285896 c 0
 1.49375346789 15.1820715465 8.75811841361 20.5249792013 24 22 c 0
 88 28 106 50 109 103 c 0
 112 155 112 201 112 255 c 0
 112 314 109 377 105 422 c 0
 102 453 79 468 48 470 c 0
 35.4376909373 471.046859089 28.0809731432 476.203395494 28.0809731432 481.597581472 c 0
 28.0809731432 486.508862652 34.1794567841 491.617147721 48 494 c 0
 89 501 132 512 153 526 c 0
 156.94123994 528.627493293 160.990350521 529.852668257 164.615901646 529.852668257 c 0
 171.627074743 529.852668257 177.054275134 525.27091787 177.054275134 517.38849299 c 0
 177.054275134 514.764430303 174 554.298723923 174 255 c 0
 174 207 177 155 178 102 c 0
 179 60 203 29 271 22 c 0
 285.241318655 20.5267601391 292.006692164 14.7126489028 292.006692164 9.41323915011 c 0
 292.006692164 4.41024420709 285.976975502 -0.134017140754 274.515424288 -0.134017140754 c 0
 273.395308459 -0.134017140754 272.223314346 -0.09061587747 271 0 c 0
 234 3 188 7 148 7 c 0
 108 7 72 0 24 0 c 0
229.67578125 587.4375 m 2
 215.96484375 594.8203125 l 2
 208.23046875 599.2734375 194.28515625 607.125 174.12890625 618.375 c 0
 153.97265625 629.625 138.38671875 638.0625 127.372070312 643.6875 c 1
 117.29296875 638.53125 102.64453125 630.4453125 83.42578125 619.4296875 c 0
 64.20703125 608.4140625 49.55859375 600.2109375 39.48046875 594.8203125 c 2
 25.76953125 587.4375 l 2
 19.91015625 587.4375 15.33984375 590.3671875 12.05859375 596.2265625 c 0
 11.82421875 596.6953125 11.70703125 597.046875 11.70703125 597.28125 c 0
 11.70703125 598.6875 12.76171875 600.4453125 14.87109375 602.5546875 c 0
 52.60546875 641.6953125 80.96484375 669.8203125 99.94921875 686.9296875 c 0
 106.74609375 692.7890625 111.55078125 696.421875 114.36328125 697.828125 c 0
 117.17578125 699.234375 122.21484375 699.9375 129.48046875 699.9375 c 0
 134.87109375 699.9375 138.97265625 699.234375 141.78515625 697.828125 c 0
 144.59765625 696.421875 149.16796875 692.7890625 155.49609375 686.9296875 c 0
 172.60546875 671.4609375 200.84765625 643.3359375 240.22265625 602.5546875 c 0
 242.33203125 600.4453125 243.38671875 598.6875 243.38671875 597.28125 c 0
 243.38671875 596.8125 243.26953125 596.4609375 243.03515625 596.2265625 c 0
 239.75390625 590.3671875 235.30078125 587.4375 229.67578125 587.4375 c 2
EndSplineSet
Validated: 524321
EndChar

